<svg width="71" height="65" viewBox="0 0 71 65" fill="none" xmlns="http://www.w3.org/2000/svg">
<path fill-rule="evenodd" clip-rule="evenodd" d="M26.682 0C19.9634 0 13.5767 1.33021 8.70069 3.76819C3.18069 6.52829 0 10.5119 0 15.0457V49.9543C0 54.4883 3.18069 58.4719 8.70089 61.232C13.5769 63.67 19.9635 65 26.682 65C31.7227 65 36.5416 64.26 40.7325 62.8485C43.5151 64.2252 46.6464 65 49.9545 65C61.4607 65 70.8209 55.64 70.8209 44.1336C70.8209 33.788 63.2536 25.1797 53.364 23.5475V15.0457C53.364 10.5118 50.1831 6.52827 44.6625 3.76799C39.7864 1.33002 33.4002 0 26.682 0ZM6.81896 15.0457C6.81896 14.1965 7.26984 13.2552 8.21754 12.2954C9.16114 11.3398 10.5576 10.4086 12.3385 9.59182C15.8977 7.95932 20.9157 6.81876 26.682 6.81876C32.4484 6.81876 37.4663 7.95932 41.0255 9.5918C42.8063 10.4086 44.2027 11.3397 45.1463 12.2953C46.094 13.2551 46.5449 14.1963 46.5449 15.0455C46.5449 15.8946 46.094 16.8359 45.1463 17.7957C44.2027 18.7513 42.8063 19.6825 41.0255 20.4993C37.4663 22.1318 32.4484 23.2723 26.682 23.2723C20.9157 23.2724 15.8977 22.1319 12.3385 20.4995C10.5576 19.6826 9.16113 18.7515 8.21754 17.7959C7.26984 16.8361 6.81896 15.8948 6.81896 15.0457ZM6.81896 26.682V25.2786L8.70089 26.3233C13.5769 28.7615 19.9637 30.0915 26.6822 30.0915C29.6425 30.0915 32.5341 29.831 35.2601 29.3339C33.6999 30.8832 32.3827 32.677 31.3708 34.6525C29.8409 34.8223 28.2707 34.9085 26.682 34.9085C20.9157 34.9085 15.8977 33.7679 12.3385 32.1355C10.5576 31.3187 9.16113 30.3876 8.21753 29.432C7.26983 28.4723 6.81896 27.5311 6.81896 26.682ZM35.9073 44.1336C35.9073 36.4148 42.167 30.1304 49.8762 30.0881L49.8857 30.0887C49.8977 30.0896 49.9241 30.0915 49.9545 30.0915C49.985 30.0915 50.0116 30.0896 50.0235 30.0887L50.0241 30.0887L50.0329 30.0881C57.7423 30.1304 64.0019 36.4148 64.0019 44.1336C64.0019 51.8791 57.6998 58.181 49.9545 58.181C42.2095 58.181 35.9073 51.8789 35.9073 44.1336ZM6.81896 38.318V36.9147C7.41076 37.2792 8.03801 37.628 8.70089 37.9595C13.5769 40.3975 19.9635 41.7275 26.682 41.7275C27.5378 41.7275 28.3894 41.7046 29.2347 41.6611C29.1383 42.4721 29.0882 43.297 29.0882 44.1336C29.0882 44.9237 29.1333 45.7033 29.2195 46.4703C28.3806 46.5196 27.5334 46.5447 26.6818 46.5447C20.9156 46.5448 15.8976 45.4042 12.3384 43.7717C10.5576 42.9549 9.16113 42.0238 8.21754 41.0681C7.26984 40.1084 6.81896 39.1671 6.81896 38.318ZM6.81896 49.9543V48.5509C7.41079 48.9155 8.03805 49.2642 8.70089 49.5956C13.5768 52.0338 19.9635 53.3638 26.6822 53.3638C28.1847 53.3638 29.6775 53.2954 31.1461 53.1628C31.9074 54.7428 32.8615 56.2126 33.9783 57.5413C31.6607 57.9594 29.1876 58.181 26.6822 58.181C20.9158 58.181 15.8977 57.0405 12.3385 55.408C10.5576 54.5912 9.16114 53.6601 8.21754 52.7045C7.26984 51.7447 6.81896 50.8035 6.81896 49.9543Z" fill="#010002"/>
<path fill-rule="evenodd" clip-rule="evenodd" d="M26.682 0C19.9634 0 13.5767 1.33021 8.70069 3.76819C3.18069 6.52829 0 10.5119 0 15.0457V49.9543C0 54.4883 3.18069 58.4719 8.70089 61.232C13.5769 63.67 19.9635 65 26.682 65C31.7227 65 36.5416 64.26 40.7325 62.8485C43.5151 64.2252 46.6464 65 49.9545 65C61.4607 65 70.8209 55.64 70.8209 44.1336C70.8209 33.788 63.2536 25.1797 53.364 23.5475V15.0457C53.364 10.5118 50.1831 6.52827 44.6625 3.76799C39.7864 1.33002 33.4002 0 26.682 0ZM6.81896 15.0457C6.81896 14.1965 7.26984 13.2552 8.21754 12.2954C9.16114 11.3398 10.5576 10.4086 12.3385 9.59182C15.8977 7.95932 20.9157 6.81876 26.682 6.81876C32.4484 6.81876 37.4663 7.95932 41.0255 9.5918C42.8063 10.4086 44.2027 11.3397 45.1463 12.2953C46.094 13.2551 46.5449 14.1963 46.5449 15.0455C46.5449 15.8946 46.094 16.8359 45.1463 17.7957C44.2027 18.7513 42.8063 19.6825 41.0255 20.4993C37.4663 22.1318 32.4484 23.2723 26.682 23.2723C20.9157 23.2724 15.8977 22.1319 12.3385 20.4995C10.5576 19.6826 9.16113 18.7515 8.21754 17.7959C7.26984 16.8361 6.81896 15.8948 6.81896 15.0457ZM6.81896 26.682V25.2786L8.70089 26.3233C13.5769 28.7615 19.9637 30.0915 26.6822 30.0915C29.6425 30.0915 32.5341 29.831 35.2601 29.3339C33.6999 30.8832 32.3827 32.677 31.3708 34.6525C29.8409 34.8223 28.2707 34.9085 26.682 34.9085C20.9157 34.9085 15.8977 33.7679 12.3385 32.1355C10.5576 31.3187 9.16113 30.3876 8.21753 29.432C7.26983 28.4723 6.81896 27.5311 6.81896 26.682ZM35.9073 44.1336C35.9073 36.4148 42.167 30.1304 49.8762 30.0881L49.8857 30.0887C49.8977 30.0896 49.9241 30.0915 49.9545 30.0915C49.985 30.0915 50.0116 30.0896 50.0235 30.0887L50.0241 30.0887L50.0329 30.0881C57.7423 30.1304 64.0019 36.4148 64.0019 44.1336C64.0019 51.8791 57.6998 58.181 49.9545 58.181C42.2095 58.181 35.9073 51.8789 35.9073 44.1336ZM6.81896 38.318V36.9147C7.41076 37.2792 8.03801 37.628 8.70089 37.9595C13.5769 40.3975 19.9635 41.7275 26.682 41.7275C27.5378 41.7275 28.3894 41.7046 29.2347 41.6611C29.1383 42.4721 29.0882 43.297 29.0882 44.1336C29.0882 44.9237 29.1333 45.7033 29.2195 46.4703C28.3806 46.5196 27.5334 46.5447 26.6818 46.5447C20.9156 46.5448 15.8976 45.4042 12.3384 43.7717C10.5576 42.9549 9.16113 42.0238 8.21754 41.0681C7.26984 40.1084 6.81896 39.1671 6.81896 38.318ZM6.81896 49.9543V48.5509C7.41079 48.9155 8.03805 49.2642 8.70089 49.5956C13.5768 52.0338 19.9635 53.3638 26.6822 53.3638C28.1847 53.3638 29.6775 53.2954 31.1461 53.1628C31.9074 54.7428 32.8615 56.2126 33.9783 57.5413C31.6607 57.9594 29.1876 58.181 26.6822 58.181C20.9158 58.181 15.8977 57.0405 12.3385 55.408C10.5576 54.5912 9.16114 53.6601 8.21754 52.7045C7.26984 51.7447 6.81896 50.8035 6.81896 49.9543Z" fill="url(#paint0_linear_10_4535)"/>
<defs>
<linearGradient id="paint0_linear_10_4535" x1="-1.68018e-07" y1="10.7667" x2="89.1683" y2="14.0612" gradientUnits="userSpaceOnUse">
<stop stop-color="#7BD7BD"/>
<stop offset="0.880188" stop-color="#DEF77E"/>
</linearGradient>
</defs>
</svg>
