<svg width="64" height="65" viewBox="0 0 64 65" fill="none" xmlns="http://www.w3.org/2000/svg">
<path d="M60.3317 47.8609L51.0909 38.2433C52.4261 34.8983 53.1203 31.3025 53.1203 27.6428C53.1203 12.4007 41.2055 0 26.5597 0C11.9149 0 0 12.4007 0 27.6428C0 42.8858 11.9149 55.2865 26.5597 55.2865C30.4579 55.2865 34.2496 54.4108 37.7271 52.7271L46.6926 62.0591C48.5153 63.9561 50.9365 65 53.514 65C56.0914 65 58.5144 63.9552 60.3362 62.0572C62.1562 60.1639 63.1592 57.643 63.1592 54.9605C63.1583 52.2798 62.1553 49.7579 60.3317 47.8609ZM56.5031 58.0733C55.6779 58.9331 54.5955 59.3624 53.5131 59.3624C52.4306 59.3624 51.3491 58.9331 50.5222 58.0733L38.6371 45.7017C35.2119 48.1879 31.051 49.649 26.5597 49.649C14.8823 49.649 5.41667 39.7964 5.41667 27.6428C5.41667 15.4892 14.8823 5.63755 26.5597 5.63755C38.2372 5.63755 47.7037 15.4892 47.7037 27.6428C47.7037 31.9367 46.5174 35.9413 44.4735 39.3294L56.5031 51.8495C58.1551 53.568 58.1551 56.3548 56.5031 58.0733Z" fill="black"/>
<path d="M60.3317 47.8609L51.0909 38.2433C52.4261 34.8983 53.1203 31.3025 53.1203 27.6428C53.1203 12.4007 41.2055 0 26.5597 0C11.9149 0 0 12.4007 0 27.6428C0 42.8858 11.9149 55.2865 26.5597 55.2865C30.4579 55.2865 34.2496 54.4108 37.7271 52.7271L46.6926 62.0591C48.5153 63.9561 50.9365 65 53.514 65C56.0914 65 58.5144 63.9552 60.3362 62.0572C62.1562 60.1639 63.1592 57.643 63.1592 54.9605C63.1583 52.2798 62.1553 49.7579 60.3317 47.8609ZM56.5031 58.0733C55.6779 58.9331 54.5955 59.3624 53.5131 59.3624C52.4306 59.3624 51.3491 58.9331 50.5222 58.0733L38.6371 45.7017C35.2119 48.1879 31.051 49.649 26.5597 49.649C14.8823 49.649 5.41667 39.7964 5.41667 27.6428C5.41667 15.4892 14.8823 5.63755 26.5597 5.63755C38.2372 5.63755 47.7037 15.4892 47.7037 27.6428C47.7037 31.9367 46.5174 35.9413 44.4735 39.3294L56.5031 51.8495C58.1551 53.568 58.1551 56.3548 56.5031 58.0733Z" fill="url(#paint0_linear_10_4537)"/>
<path d="M26.5597 11.9047C18.2226 11.9047 11.4391 18.9648 11.4391 27.6428C11.4391 36.3209 18.2226 43.381 26.5597 43.381C34.8978 43.381 41.6812 36.3209 41.6812 27.6428C41.6812 18.9648 34.8978 11.9047 26.5597 11.9047ZM26.5597 37.7434C21.2089 37.7434 16.8558 33.2127 16.8558 27.6428C16.8558 22.0729 21.2089 17.5422 26.5597 17.5422C31.9114 17.5422 36.2646 22.0729 36.2646 27.6428C36.2646 33.2127 31.9114 37.7434 26.5597 37.7434Z" fill="black"/>
<path d="M26.5597 11.9047C18.2226 11.9047 11.4391 18.9648 11.4391 27.6428C11.4391 36.3209 18.2226 43.381 26.5597 43.381C34.8978 43.381 41.6812 36.3209 41.6812 27.6428C41.6812 18.9648 34.8978 11.9047 26.5597 11.9047ZM26.5597 37.7434C21.2089 37.7434 16.8558 33.2127 16.8558 27.6428C16.8558 22.0729 21.2089 17.5422 26.5597 17.5422C31.9114 17.5422 36.2646 22.0729 36.2646 27.6428C36.2646 33.2127 31.9114 37.7434 26.5597 37.7434Z" fill="url(#paint1_linear_10_4537)"/>
<defs>
<linearGradient id="paint0_linear_10_4537" x1="-1.49841e-07" y1="10.7667" x2="79.5439" y2="13.3876" gradientUnits="userSpaceOnUse">
<stop stop-color="#7BD7BD"/>
<stop offset="0.880188" stop-color="#DEF77E"/>
</linearGradient>
<linearGradient id="paint1_linear_10_4537" x1="11.4391" y1="17.1185" x2="49.5275" y2="18.3594" gradientUnits="userSpaceOnUse">
<stop stop-color="#7BD7BD"/>
<stop offset="0.880188" stop-color="#DEF77E"/>
</linearGradient>
</defs>
</svg>
