<svg width="76" height="64" viewBox="0 0 76 64" fill="none" xmlns="http://www.w3.org/2000/svg">
<path fill-rule="evenodd" clip-rule="evenodd" d="M62.0278 52.7013L67.4128 58.2038H67.4152C67.9117 58.7109 68.2154 59.4275 68.2595 60.196C68.3035 60.9646 68.0844 61.722 67.6502 62.3019C67.216 62.8817 66.6024 63.2363 65.9443 63.2878C65.2862 63.3392 64.6376 63.0833 64.1411 62.5762L57.0219 55.302C51.3841 57.7525 44.7538 59.182 37.6543 59.182C25.3581 59.182 14.4666 54.8996 7.70688 48.4397C5.42303 46.4983 3.54386 43.9799 2.20944 41.0723C0.875021 38.1647 0.119776 34.9428 0 31.6469C0.118167 28.3507 0.871913 25.1282 2.20505 22.2195C3.53818 19.3109 5.41631 16.7912 7.69943 14.8483C9.32754 13.2938 11.1952 11.8649 13.2644 10.5913L7.88079 5.09045C7.3843 4.5834 7.08062 3.86678 7.03656 3.09825C6.9925 2.32972 7.21167 1.57222 7.64586 0.992407C8.08004 0.41259 8.69367 0.0579458 9.35176 0.00649252C10.0098 -0.0449607 10.6585 0.210992 11.155 0.718043L18.2706 7.98896C23.9097 5.53663 30.5431 4.10598 37.6469 4.10598C49.9456 4.10598 60.8322 8.39419 67.5869 14.8541C69.8703 16.7959 71.7492 19.3144 73.0836 22.222C74.418 25.1295 75.1735 28.3511 75.2938 31.6469C75.1752 34.9412 74.422 38.162 73.0903 41.0694C71.7585 43.9768 69.8825 46.4961 67.6018 48.4397C65.9711 49.9961 64.1004 51.4266 62.0278 52.7013ZM57.9879 48.5732C60.4368 47.2536 62.6124 45.6965 64.4445 43.9454C66.151 42.5412 67.5652 40.7067 68.5825 38.5779C69.5998 36.449 70.1942 34.0803 70.3216 31.6469C70.1942 29.2135 69.5998 26.8448 68.5825 24.7159C67.5652 22.5871 66.151 20.7526 64.4445 19.3484C58.4058 13.5766 48.6354 9.91262 37.6469 9.91262C32.2298 9.91262 27.1088 10.8031 22.5849 12.3975L30.4128 20.3962C30.5892 20.2416 30.7695 20.0923 30.9535 19.9486C32.9348 18.4027 35.264 17.5775 37.6468 17.5775C40.8415 17.5798 43.9047 19.0629 46.1636 21.7009C48.4225 24.339 49.6925 27.9163 49.6944 31.647C49.6944 34.0623 49.1621 36.4305 48.1559 38.5267L57.9879 48.5732ZM44.2751 34.5611C44.4116 34.1381 44.5187 33.701 44.5947 33.2537C44.8668 31.6503 44.7257 29.9886 44.189 28.4789C43.6523 26.9692 42.7443 25.6793 41.5798 24.7725C40.4152 23.8656 39.0465 23.3824 37.6468 23.3842C36.4689 23.3861 35.3216 23.7309 34.3028 24.3711L44.2751 34.5611ZM31.0305 28.7445L40.998 38.929C40.386 39.3122 39.7258 39.5902 39.0374 39.7505C37.6647 40.07 36.2417 39.9069 34.9484 39.2817C33.6551 38.6566 32.5496 37.5975 31.7718 36.2385C30.994 34.8795 30.5789 33.2816 30.5789 31.647C30.5792 30.6461 30.7349 29.6639 31.0305 28.7445ZM27.1379 24.767C26.9064 25.2492 26.6987 25.7486 26.5163 26.2628C25.6044 28.8337 25.3659 31.6626 25.8307 34.3918C26.2956 37.1211 27.443 39.628 29.1279 41.5957C30.8128 43.5633 32.9595 44.9033 35.2965 45.4462C37.6335 45.9891 40.0558 45.7104 42.2573 44.6455C43.1964 44.1913 44.0773 43.6026 44.8816 42.8972L52.7098 50.896C48.1857 52.4906 43.0643 53.3812 37.6469 53.3812C26.6584 53.3812 16.888 49.7172 10.8493 43.9454C9.14281 42.5412 7.72857 40.7067 6.71125 38.5779C5.69393 36.449 5.09958 34.0803 4.97218 31.6469C5.09958 29.2135 5.69393 26.8448 6.71125 24.7159C7.72857 22.5871 9.14281 20.7526 10.8493 19.3484C12.6814 17.5973 14.8569 16.0403 17.3057 14.7207L27.1379 24.767Z" fill="black"/>
<path fill-rule="evenodd" clip-rule="evenodd" d="M62.0278 52.7013L67.4128 58.2038H67.4152C67.9117 58.7109 68.2154 59.4275 68.2595 60.196C68.3035 60.9646 68.0844 61.722 67.6502 62.3019C67.216 62.8817 66.6024 63.2363 65.9443 63.2878C65.2862 63.3392 64.6376 63.0833 64.1411 62.5762L57.0219 55.302C51.3841 57.7525 44.7538 59.182 37.6543 59.182C25.3581 59.182 14.4666 54.8996 7.70688 48.4397C5.42303 46.4983 3.54386 43.9799 2.20944 41.0723C0.875021 38.1647 0.119776 34.9428 0 31.6469C0.118167 28.3507 0.871913 25.1282 2.20505 22.2195C3.53818 19.3109 5.41631 16.7912 7.69943 14.8483C9.32754 13.2938 11.1952 11.8649 13.2644 10.5913L7.88079 5.09045C7.3843 4.5834 7.08062 3.86678 7.03656 3.09825C6.9925 2.32972 7.21167 1.57222 7.64586 0.992407C8.08004 0.41259 8.69367 0.0579458 9.35176 0.00649252C10.0098 -0.0449607 10.6585 0.210992 11.155 0.718043L18.2706 7.98896C23.9097 5.53663 30.5431 4.10598 37.6469 4.10598C49.9456 4.10598 60.8322 8.39419 67.5869 14.8541C69.8703 16.7959 71.7492 19.3144 73.0836 22.222C74.418 25.1295 75.1735 28.3511 75.2938 31.6469C75.1752 34.9412 74.422 38.162 73.0903 41.0694C71.7585 43.9768 69.8825 46.4961 67.6018 48.4397C65.9711 49.9961 64.1004 51.4266 62.0278 52.7013ZM57.9879 48.5732C60.4368 47.2536 62.6124 45.6965 64.4445 43.9454C66.151 42.5412 67.5652 40.7067 68.5825 38.5779C69.5998 36.449 70.1942 34.0803 70.3216 31.6469C70.1942 29.2135 69.5998 26.8448 68.5825 24.7159C67.5652 22.5871 66.151 20.7526 64.4445 19.3484C58.4058 13.5766 48.6354 9.91262 37.6469 9.91262C32.2298 9.91262 27.1088 10.8031 22.5849 12.3975L30.4128 20.3962C30.5892 20.2416 30.7695 20.0923 30.9535 19.9486C32.9348 18.4027 35.264 17.5775 37.6468 17.5775C40.8415 17.5798 43.9047 19.0629 46.1636 21.7009C48.4225 24.339 49.6925 27.9163 49.6944 31.647C49.6944 34.0623 49.1621 36.4305 48.1559 38.5267L57.9879 48.5732ZM44.2751 34.5611C44.4116 34.1381 44.5187 33.701 44.5947 33.2537C44.8668 31.6503 44.7257 29.9886 44.189 28.4789C43.6523 26.9692 42.7443 25.6793 41.5798 24.7725C40.4152 23.8656 39.0465 23.3824 37.6468 23.3842C36.4689 23.3861 35.3216 23.7309 34.3028 24.3711L44.2751 34.5611ZM31.0305 28.7445L40.998 38.929C40.386 39.3122 39.7258 39.5902 39.0374 39.7505C37.6647 40.07 36.2417 39.9069 34.9484 39.2817C33.6551 38.6566 32.5496 37.5975 31.7718 36.2385C30.994 34.8795 30.5789 33.2816 30.5789 31.647C30.5792 30.6461 30.7349 29.6639 31.0305 28.7445ZM27.1379 24.767C26.9064 25.2492 26.6987 25.7486 26.5163 26.2628C25.6044 28.8337 25.3659 31.6626 25.8307 34.3918C26.2956 37.1211 27.443 39.628 29.1279 41.5957C30.8128 43.5633 32.9595 44.9033 35.2965 45.4462C37.6335 45.9891 40.0558 45.7104 42.2573 44.6455C43.1964 44.1913 44.0773 43.6026 44.8816 42.8972L52.7098 50.896C48.1857 52.4906 43.0643 53.3812 37.6469 53.3812C26.6584 53.3812 16.888 49.7172 10.8493 43.9454C9.14281 42.5412 7.72857 40.7067 6.71125 38.5779C5.69393 36.449 5.09958 34.0803 4.97218 31.6469C5.09958 29.2135 5.69393 26.8448 6.71125 24.7159C7.72857 22.5871 9.14281 20.7526 10.8493 19.3484C12.6814 17.5973 14.8569 16.0403 17.3057 14.7207L27.1379 24.767Z" fill="url(#paint0_linear_10_4562)"/>
<defs>
<linearGradient id="paint0_linear_10_4562" x1="-1.7863e-07" y1="10.4842" x2="94.7751" y2="14.3072" gradientUnits="userSpaceOnUse">
<stop stop-color="#7BD7BD"/>
<stop offset="0.880188" stop-color="#DEF77E"/>
</linearGradient>
</defs>
</svg>
