<svg width="95" height="71" viewBox="0 0 95 71" fill="none" xmlns="http://www.w3.org/2000/svg">
<path fill-rule="evenodd" clip-rule="evenodd" d="M77.9078 5.19885L73.0601 10.0295C71.0053 7.98193 68.2184 6.8316 65.3125 6.8316C62.4066 6.8316 59.6197 7.98193 57.5648 10.0295C55.51 12.0771 54.3557 14.8542 54.3557 17.75C54.3557 20.6457 55.51 23.4228 57.5648 25.4704C59.6197 27.518 62.4066 28.6683 65.3125 28.6683C68.2184 28.6683 71.0053 27.518 73.0601 25.4704L77.9078 30.3011C75.7486 32.4528 73.092 33.995 70.2073 34.8166C68.6293 35.2661 66.983 35.4999 65.3125 35.4999C63.642 35.4999 61.9957 35.2661 60.4177 34.8166C57.533 33.995 54.8764 32.4528 52.7172 30.3011C50.6509 28.2421 49.1447 25.7293 48.2963 22.9978C48.0638 22.2494 47.8807 21.4847 47.7491 20.7083C47.5843 19.7372 47.5 18.7479 47.5 17.75C47.5 16.877 47.5645 16.0106 47.691 15.1572C48.2464 11.4087 49.9962 7.9103 52.7172 5.19885C56.0577 1.87008 60.5883 0 65.3125 0C70.0367 0 74.5674 1.87008 77.9078 5.19885ZM89.0625 70.9999C89.0625 70.9999 95 70.9999 95 65.0832C95 59.6402 89.9751 44.1827 70.68 41.7427C69.0009 41.5303 67.2138 41.4166 65.3125 41.4166C63.4112 41.4166 61.6241 41.5303 59.945 41.7427C56.5613 42.1706 53.6164 42.9988 51.0605 44.1032C48.6689 45.1366 46.6178 46.4118 44.8666 47.8269C37.8174 53.5233 35.625 61.4879 35.625 65.0832C35.625 65.0833 35.625 65.0832 35.625 65.0832C35.625 65.1187 35.6252 65.1541 35.6256 65.1891C35.6421 66.5513 35.9772 67.5941 36.4804 68.3925C36.9153 69.0824 37.4759 69.5897 38.0651 69.9628C39.7029 70.9999 41.5625 70.9999 41.5625 70.9999H89.0625ZM42.5655 64.1683H88.0595C87.7694 62.3015 86.674 58.7517 83.8573 55.4771C80.7473 51.8615 75.2495 48.2482 65.3125 48.2482C55.3755 48.2482 49.8777 51.8615 46.7677 55.4771C43.951 58.7517 42.8556 62.3015 42.5655 64.1683ZM29.705 64.1684C29.9093 58.8045 31.9043 53.3816 35.5059 48.7195C37.0918 46.6666 38.9892 44.7613 41.1825 43.0734C40.8621 42.975 40.5406 42.881 40.218 42.7913C37.7628 42.1086 35.2458 41.6772 32.7063 41.5028C32.6963 41.5021 32.6862 41.5014 32.6762 41.5007C31.6826 41.4333 30.6856 41.4052 29.6875 41.4167C28.6652 41.4167 27.676 41.4496 26.7188 41.513C25.3376 41.6045 24.0232 41.7596 22.7726 41.9711C4.7545 45.0187 0 59.7888 0 65.0833C0 71 5.9375 71 5.9375 71H30.97C30.0898 69.1529 29.6508 67.1278 29.6875 65.0833C29.6875 65.0834 29.6875 65.0833 29.6875 65.0833C29.6875 64.7787 29.6933 64.4736 29.705 64.1684ZM22.8454 64.1684C23.0083 58.6637 24.6363 53.2155 27.5299 48.3075C18.9409 48.7892 14.0199 52.1323 11.1427 55.4772C8.32605 58.7518 7.23062 62.3016 6.94047 64.1684H22.8454ZM29.6151 35.2157C29.6393 35.2109 29.6634 35.206 29.6875 35.2011C30.4001 35.0562 31.0996 34.8595 31.7805 34.6134C33.8041 33.8818 35.6635 32.7135 37.2149 31.1676C39.3476 29.0423 40.7643 26.3369 41.3103 23.4236C41.477 22.5344 41.5625 21.6257 41.5625 20.7083C41.5625 19.7071 41.4606 18.7164 41.2627 17.75C41.127 17.0876 40.9461 16.4365 40.7219 15.8013C39.9915 13.7317 38.8013 11.8299 37.2149 10.249C34.4311 7.47506 30.6556 5.91666 26.7188 5.91666C22.7819 5.91666 19.0064 7.47506 16.2226 10.249C13.4389 13.023 11.875 16.7853 11.875 20.7083C11.875 24.6313 13.4389 28.3936 16.2226 31.1676C18.1103 33.0486 20.454 34.3707 22.9948 35.0269C24.2009 35.3385 25.4515 35.4999 26.7188 35.4999C27.6985 35.4999 28.6682 35.4034 29.6151 35.2157ZM77.9078 5.19885L73.0601 10.0295C75.1149 12.0771 76.2693 14.8542 76.2693 17.75C76.2693 20.6457 75.1149 23.4228 73.0601 25.4704L77.9078 30.3011C81.2483 26.9723 83.125 22.4576 83.125 17.75C83.125 13.0424 81.2483 8.52761 77.9078 5.19885ZM26.7188 28.6683C28.8373 28.6683 30.8691 27.8297 32.3672 26.3369C33.8652 24.8441 34.7068 22.8194 34.7068 20.7083C34.7068 18.5972 33.8652 16.5725 32.3672 15.0797C30.8691 13.5869 28.8373 12.7483 26.7188 12.7483C24.6002 12.7483 22.5684 13.5869 21.0703 15.0797C19.5723 16.5725 18.7307 18.5972 18.7307 20.7083C18.7307 22.8194 19.5723 24.8441 21.0703 26.3369C22.5684 27.8297 24.6002 28.6683 26.7188 28.6683Z" fill="black"/>
<path fill-rule="evenodd" clip-rule="evenodd" d="M77.9078 5.19885L73.0601 10.0295C71.0053 7.98193 68.2184 6.8316 65.3125 6.8316C62.4066 6.8316 59.6197 7.98193 57.5648 10.0295C55.51 12.0771 54.3557 14.8542 54.3557 17.75C54.3557 20.6457 55.51 23.4228 57.5648 25.4704C59.6197 27.518 62.4066 28.6683 65.3125 28.6683C68.2184 28.6683 71.0053 27.518 73.0601 25.4704L77.9078 30.3011C75.7486 32.4528 73.092 33.995 70.2073 34.8166C68.6293 35.2661 66.983 35.4999 65.3125 35.4999C63.642 35.4999 61.9957 35.2661 60.4177 34.8166C57.533 33.995 54.8764 32.4528 52.7172 30.3011C50.6509 28.2421 49.1447 25.7293 48.2963 22.9978C48.0638 22.2494 47.8807 21.4847 47.7491 20.7083C47.5843 19.7372 47.5 18.7479 47.5 17.75C47.5 16.877 47.5645 16.0106 47.691 15.1572C48.2464 11.4087 49.9962 7.9103 52.7172 5.19885C56.0577 1.87008 60.5883 0 65.3125 0C70.0367 0 74.5674 1.87008 77.9078 5.19885ZM89.0625 70.9999C89.0625 70.9999 95 70.9999 95 65.0832C95 59.6402 89.9751 44.1827 70.68 41.7427C69.0009 41.5303 67.2138 41.4166 65.3125 41.4166C63.4112 41.4166 61.6241 41.5303 59.945 41.7427C56.5613 42.1706 53.6164 42.9988 51.0605 44.1032C48.6689 45.1366 46.6178 46.4118 44.8666 47.8269C37.8174 53.5233 35.625 61.4879 35.625 65.0832C35.625 65.0833 35.625 65.0832 35.625 65.0832C35.625 65.1187 35.6252 65.1541 35.6256 65.1891C35.6421 66.5513 35.9772 67.5941 36.4804 68.3925C36.9153 69.0824 37.4759 69.5897 38.0651 69.9628C39.7029 70.9999 41.5625 70.9999 41.5625 70.9999H89.0625ZM42.5655 64.1683H88.0595C87.7694 62.3015 86.674 58.7517 83.8573 55.4771C80.7473 51.8615 75.2495 48.2482 65.3125 48.2482C55.3755 48.2482 49.8777 51.8615 46.7677 55.4771C43.951 58.7517 42.8556 62.3015 42.5655 64.1683ZM29.705 64.1684C29.9093 58.8045 31.9043 53.3816 35.5059 48.7195C37.0918 46.6666 38.9892 44.7613 41.1825 43.0734C40.8621 42.975 40.5406 42.881 40.218 42.7913C37.7628 42.1086 35.2458 41.6772 32.7063 41.5028C32.6963 41.5021 32.6862 41.5014 32.6762 41.5007C31.6826 41.4333 30.6856 41.4052 29.6875 41.4167C28.6652 41.4167 27.676 41.4496 26.7188 41.513C25.3376 41.6045 24.0232 41.7596 22.7726 41.9711C4.7545 45.0187 0 59.7888 0 65.0833C0 71 5.9375 71 5.9375 71H30.97C30.0898 69.1529 29.6508 67.1278 29.6875 65.0833C29.6875 65.0834 29.6875 65.0833 29.6875 65.0833C29.6875 64.7787 29.6933 64.4736 29.705 64.1684ZM22.8454 64.1684C23.0083 58.6637 24.6363 53.2155 27.5299 48.3075C18.9409 48.7892 14.0199 52.1323 11.1427 55.4772C8.32605 58.7518 7.23062 62.3016 6.94047 64.1684H22.8454ZM29.6151 35.2157C29.6393 35.2109 29.6634 35.206 29.6875 35.2011C30.4001 35.0562 31.0996 34.8595 31.7805 34.6134C33.8041 33.8818 35.6635 32.7135 37.2149 31.1676C39.3476 29.0423 40.7643 26.3369 41.3103 23.4236C41.477 22.5344 41.5625 21.6257 41.5625 20.7083C41.5625 19.7071 41.4606 18.7164 41.2627 17.75C41.127 17.0876 40.9461 16.4365 40.7219 15.8013C39.9915 13.7317 38.8013 11.8299 37.2149 10.249C34.4311 7.47506 30.6556 5.91666 26.7188 5.91666C22.7819 5.91666 19.0064 7.47506 16.2226 10.249C13.4389 13.023 11.875 16.7853 11.875 20.7083C11.875 24.6313 13.4389 28.3936 16.2226 31.1676C18.1103 33.0486 20.454 34.3707 22.9948 35.0269C24.2009 35.3385 25.4515 35.4999 26.7188 35.4999C27.6985 35.4999 28.6682 35.4034 29.6151 35.2157ZM77.9078 5.19885L73.0601 10.0295C75.1149 12.0771 76.2693 14.8542 76.2693 17.75C76.2693 20.6457 75.1149 23.4228 73.0601 25.4704L77.9078 30.3011C81.2483 26.9723 83.125 22.4576 83.125 17.75C83.125 13.0424 81.2483 8.52761 77.9078 5.19885ZM26.7188 28.6683C28.8373 28.6683 30.8691 27.8297 32.3672 26.3369C33.8652 24.8441 34.7068 22.8194 34.7068 20.7083C34.7068 18.5972 33.8652 16.5725 32.3672 15.0797C30.8691 13.5869 28.8373 12.7483 26.7188 12.7483C24.6002 12.7483 22.5684 13.5869 21.0703 15.0797C19.5723 16.5725 18.7307 18.5972 18.7307 20.7083C18.7307 22.8194 19.5723 24.8441 21.0703 26.3369C22.5684 27.8297 24.6002 28.6683 26.7188 28.6683Z" fill="url(#paint0_linear_10_4568)"/>
<defs>
<linearGradient id="paint0_linear_10_4568" x1="-2.25382e-07" y1="11.7606" x2="119.529" y2="17.1838" gradientUnits="userSpaceOnUse">
<stop stop-color="#7BD7BD"/>
<stop offset="0.880188" stop-color="#DEF77E"/>
</linearGradient>
</defs>
</svg>
