<svg width="78" height="78" viewBox="0 0 78 78" fill="none" xmlns="http://www.w3.org/2000/svg">
<path fill-rule="evenodd" clip-rule="evenodd" d="M7.99809 5.76C6.73732 5.76 5.71527 6.79005 5.71527 8.06069V65.0483C5.71527 66.319 6.7373 67.349 7.99809 67.349H69.6836C70.9444 67.349 71.9664 66.319 71.9664 65.0483V8.06069C71.9664 6.79002 70.9444 5.76 69.6836 5.76H7.99809ZM0 8.06069C0 3.60889 3.58087 0 7.99809 0H69.6836C74.1009 0 77.6817 3.60892 77.6817 8.06069V65.0483C77.6817 69.5002 74.1009 73.109 69.6836 73.109H67.4008V78H61.6855V73.109H15.9962V78H10.2809V73.109H7.99809C3.5809 73.109 0 69.5002 0 65.0483V8.06069ZM10.2809 31.3738V15.8317H15.9962V31.3738H10.2809ZM49.1218 31.6634C45.022 31.6634 41.6985 35.013 41.6985 39.1448C41.6985 43.2767 45.022 46.6262 49.1218 46.6262C53.2217 46.6262 56.545 43.2767 56.545 39.1448C56.545 35.0129 53.2217 31.6634 49.1218 31.6634ZM35.9832 39.1448C35.9832 31.8318 41.8655 25.9034 49.1218 25.9034C56.3782 25.9034 62.2603 31.8318 62.2603 39.1448C62.2603 46.4578 56.3782 52.3862 49.1218 52.3862C41.8655 52.3862 35.9832 46.4578 35.9832 39.1448ZM10.2809 57.2772V41.7352H15.9962V57.2772H10.2809Z" fill="black"/>
<path fill-rule="evenodd" clip-rule="evenodd" d="M7.99809 5.76C6.73732 5.76 5.71527 6.79005 5.71527 8.06069V65.0483C5.71527 66.319 6.7373 67.349 7.99809 67.349H69.6836C70.9444 67.349 71.9664 66.319 71.9664 65.0483V8.06069C71.9664 6.79002 70.9444 5.76 69.6836 5.76H7.99809ZM0 8.06069C0 3.60889 3.58087 0 7.99809 0H69.6836C74.1009 0 77.6817 3.60892 77.6817 8.06069V65.0483C77.6817 69.5002 74.1009 73.109 69.6836 73.109H67.4008V78H61.6855V73.109H15.9962V78H10.2809V73.109H7.99809C3.5809 73.109 0 69.5002 0 65.0483V8.06069ZM10.2809 31.3738V15.8317H15.9962V31.3738H10.2809ZM49.1218 31.6634C45.022 31.6634 41.6985 35.013 41.6985 39.1448C41.6985 43.2767 45.022 46.6262 49.1218 46.6262C53.2217 46.6262 56.545 43.2767 56.545 39.1448C56.545 35.0129 53.2217 31.6634 49.1218 31.6634ZM35.9832 39.1448C35.9832 31.8318 41.8655 25.9034 49.1218 25.9034C56.3782 25.9034 62.2603 31.8318 62.2603 39.1448C62.2603 46.4578 56.3782 52.3862 49.1218 52.3862C41.8655 52.3862 35.9832 46.4578 35.9832 39.1448ZM10.2809 57.2772V41.7352H15.9962V57.2772H10.2809Z" fill="url(#paint0_linear_10_4573)"/>
<defs>
<linearGradient id="paint0_linear_10_4573" x1="2.85764" y1="15.323" x2="93.4962" y2="18.2675" gradientUnits="userSpaceOnUse">
<stop stop-color="#7BD7BD"/>
<stop offset="0.880188" stop-color="#DEF77E"/>
</linearGradient>
</defs>
</svg>
