<svg>
  <symbol id="24" width="74" height="72" viewBox="0 0 74 72" xmlns="http://www.w3.org/2000/svg">
    <path fill-rule="evenodd" clip-rule="evenodd" d="M73.6772 27.6573C73.1237 26.5074 71.9517 25.8083 70.7408 25.9184L67.0598 26.1994C63.067 11.1209 49.8502 2.91758e-09 34.1634 2.91758e-09C15.3256 -0.000249589 0 16.0135 0 35.694C0 55.376 15.3256 71.3882 34.1632 71.3882C45.0672 71.3882 55.4085 65.8764 61.826 56.6464C62.8109 55.2265 62.508 53.2445 61.1516 52.2127C59.7925 51.1823 57.8941 51.5026 56.9092 52.9158C51.63 60.5087 43.1272 65.0428 34.1617 65.0428C18.6725 65.0428 6.07278 51.8772 6.07278 35.695C6.07278 19.5128 18.6727 6.34768 34.162 6.34768C46.6367 6.34768 57.2264 14.8948 60.8788 26.6732L58.9622 26.8197C57.7381 26.912 56.687 27.7699 56.3012 28.9864C55.9139 30.2054 56.2699 31.5467 57.1977 32.3856L62.712 37.361C63.2485 38.2638 64.1972 38.8678 65.286 38.8678C65.3179 38.8678 65.3485 38.8636 65.3791 38.8595C65.4034 38.8561 65.4276 38.8528 65.4523 38.8516C65.4615 38.8516 65.4697 38.8537 65.4779 38.8558C65.4857 38.8579 65.4934 38.8598 65.5017 38.8598C65.5746 38.8598 65.6486 38.8586 65.7239 38.8516C66.5268 38.7892 67.2726 38.3969 67.8003 37.7601L73.2587 31.1569C74.0644 30.1864 74.2281 28.8029 73.6772 27.6573ZM18.1011 46.7502V43.6712L20.7907 41.1313C25.337 36.8822 27.546 34.4384 27.6095 31.897C27.6095 30.1227 26.5856 28.719 24.1819 28.719C22.3903 28.719 20.8206 29.6529 19.7317 30.5258L18.3545 26.8767C19.924 25.6427 22.3564 24.6368 25.1748 24.6368C29.8823 24.6368 32.4757 27.5134 32.4757 31.4613C32.4757 35.1076 29.9473 38.0196 26.9366 40.8285L25.015 42.5011V42.5662H32.8603V46.7502H18.1011ZM44.4956 41.5654V46.7527H49.1071V41.5654H51.6045V37.7521H49.1071V25.0045H43.1509L35.2743 38.2558V41.5654H44.4956ZM44.4956 32.9354V37.7521H39.8208V37.6854L42.6065 32.9354C43.0457 32.0787 43.423 31.2612 43.8088 30.4253C44.0404 29.9234 44.2751 29.4149 44.5281 28.8872H44.6555C44.5594 30.2937 44.4956 31.6295 44.4956 32.9354Z" fill="#010002"/>
    <path fill-rule="evenodd" clip-rule="evenodd" d="M73.6772 27.6573C73.1237 26.5074 71.9517 25.8083 70.7408 25.9184L67.0598 26.1994C63.067 11.1209 49.8502 2.91758e-09 34.1634 2.91758e-09C15.3256 -0.000249589 0 16.0135 0 35.694C0 55.376 15.3256 71.3882 34.1632 71.3882C45.0672 71.3882 55.4085 65.8764 61.826 56.6464C62.8109 55.2265 62.508 53.2445 61.1516 52.2127C59.7925 51.1823 57.8941 51.5026 56.9092 52.9158C51.63 60.5087 43.1272 65.0428 34.1617 65.0428C18.6725 65.0428 6.07278 51.8772 6.07278 35.695C6.07278 19.5128 18.6727 6.34768 34.162 6.34768C46.6367 6.34768 57.2264 14.8948 60.8788 26.6732L58.9622 26.8197C57.7381 26.912 56.687 27.7699 56.3012 28.9864C55.9139 30.2054 56.2699 31.5467 57.1977 32.3856L62.712 37.361C63.2485 38.2638 64.1972 38.8678 65.286 38.8678C65.3179 38.8678 65.3485 38.8636 65.3791 38.8595C65.4034 38.8561 65.4276 38.8528 65.4523 38.8516C65.4615 38.8516 65.4697 38.8537 65.4779 38.8558C65.4857 38.8579 65.4934 38.8598 65.5017 38.8598C65.5746 38.8598 65.6486 38.8586 65.7239 38.8516C66.5268 38.7892 67.2726 38.3969 67.8003 37.7601L73.2587 31.1569C74.0644 30.1864 74.2281 28.8029 73.6772 27.6573ZM18.1011 46.7502V43.6712L20.7907 41.1313C25.337 36.8822 27.546 34.4384 27.6095 31.897C27.6095 30.1227 26.5856 28.719 24.1819 28.719C22.3903 28.719 20.8206 29.6529 19.7317 30.5258L18.3545 26.8767C19.924 25.6427 22.3564 24.6368 25.1748 24.6368C29.8823 24.6368 32.4757 27.5134 32.4757 31.4613C32.4757 35.1076 29.9473 38.0196 26.9366 40.8285L25.015 42.5011V42.5662H32.8603V46.7502H18.1011ZM44.4956 41.5654V46.7527H49.1071V41.5654H51.6045V37.7521H49.1071V25.0045H43.1509L35.2743 38.2558V41.5654H44.4956ZM44.4956 32.9354V37.7521H39.8208V37.6854L42.6065 32.9354C43.0457 32.0787 43.423 31.2612 43.8088 30.4253C44.0404 29.9234 44.2751 29.4149 44.5281 28.8872H44.6555C44.5594 30.2937 44.4956 31.6295 44.4956 32.9354Z" fill="url(#paint0_linear_10_4535)"/>
    <defs>
    <linearGradient id="paint0_linear_10_4535" x1="-1.7556e-07" y1="11.8249" x2="93.183" y2="15.1003" gradientUnits="userSpaceOnUse">
    <stop stop-color="#7BD7BD"/>
    <stop offset="0.880188" stop-color="#DEF77E"/>
    </linearGradient>
    </defs>
  </symbol>

</svg>