<svg width="65" height="70" viewBox="0 0 65 70" fill="none" xmlns="http://www.w3.org/2000/svg">
<path d="M61.9573 63.5744H59.0191C57.9153 53.2711 51.2483 40.2081 41.807 34.6744C51.2483 29.1406 57.9153 16.0917 59.0191 5.77434H61.9573C63.6427 5.77434 65 4.48644 65 2.88717C65 1.2879 63.6427 0 61.9573 0H3.04268C1.35727 0 0 1.2879 0 2.88717C0 4.48644 1.35727 5.77434 3.04268 5.77434H5.98096C7.08467 16.0776 13.7517 29.1406 23.193 34.6744C13.7517 40.2081 7.08467 53.2711 5.98096 63.5744H3.04268C1.35727 63.5744 0 64.8623 0 66.4615C0 68.0608 1.35727 69.3487 3.04268 69.3487H61.9424C63.6278 69.3487 64.9851 68.0608 64.9851 66.4615C65 64.8623 63.6278 63.5744 61.9573 63.5744ZM12.126 5.77434H52.874C51.4422 16.6012 42.5229 31.5607 32.5 31.5607C22.4771 31.5607 13.5578 16.6012 12.126 5.77434ZM32.5 37.788C42.5229 37.788 51.4422 52.7475 52.874 63.5744H12.126C13.5578 52.7475 22.4771 37.788 32.5 37.788Z" fill="black"/>
<path d="M61.9573 63.5744H59.0191C57.9153 53.2711 51.2483 40.2081 41.807 34.6744C51.2483 29.1406 57.9153 16.0917 59.0191 5.77434H61.9573C63.6427 5.77434 65 4.48644 65 2.88717C65 1.2879 63.6427 0 61.9573 0H3.04268C1.35727 0 0 1.2879 0 2.88717C0 4.48644 1.35727 5.77434 3.04268 5.77434H5.98096C7.08467 16.0776 13.7517 29.1406 23.193 34.6744C13.7517 40.2081 7.08467 53.2711 5.98096 63.5744H3.04268C1.35727 63.5744 0 64.8623 0 66.4615C0 68.0608 1.35727 69.3487 3.04268 69.3487H61.9424C63.6278 69.3487 64.9851 68.0608 64.9851 66.4615C65 64.8623 63.6278 63.5744 61.9573 63.5744ZM12.126 5.77434H52.874C51.4422 16.6012 42.5229 31.5607 32.5 31.5607C22.4771 31.5607 13.5578 16.6012 12.126 5.77434ZM32.5 37.788C42.5229 37.788 51.4422 52.7475 52.874 63.5744H12.126C13.5578 52.7475 22.4771 37.788 32.5 37.788Z" fill="url(#paint0_linear_10_4569)"/>
<defs>
<linearGradient id="paint0_linear_10_4569" x1="-1.54209e-07" y1="11.487" x2="81.8684" y2="14.0891" gradientUnits="userSpaceOnUse">
<stop stop-color="#7BD7BD"/>
<stop offset="0.880188" stop-color="#DEF77E"/>
</linearGradient>
</defs>
</svg>
