<svg width="386" height="59" viewBox="0 0 386 59" fill="none" xmlns="http://www.w3.org/2000/svg">
<path d="M18.9473 44H12.0332V16.4316C12.0332 15.5137 12.043 14.5957 12.0625 13.6777C12.082 12.7598 12.1016 11.8613 12.1211 10.9824C12.1602 10.1035 12.209 9.26367 12.2676 8.46289C11.8574 8.91211 11.3496 9.40039 10.7441 9.92773C10.1582 10.4551 9.5332 11.002 8.86914 11.5684L3.94727 15.4941L0.490234 11.1289L13.2051 1.16797H18.9473V44ZM62.043 44H33.0391V38.8145L44.1426 27.5645C46.291 25.377 48.0586 23.4922 49.4453 21.9102C50.832 20.3086 51.8574 18.7949 52.5215 17.3691C53.2051 15.9434 53.5469 14.3906 53.5469 12.7109C53.5469 10.6406 52.9512 9.07812 51.7598 8.02344C50.5684 6.94922 48.9961 6.41211 47.043 6.41211C45.1875 6.41211 43.4688 6.7832 41.8867 7.52539C40.3242 8.24805 38.7031 9.2832 37.0234 10.6309L33.2441 6.08984C34.4355 5.07422 35.7051 4.14648 37.0527 3.30664C38.4199 2.4668 39.9434 1.80273 41.623 1.31445C43.3027 0.806641 45.2168 0.552734 47.3652 0.552734C50.0801 0.552734 52.4238 1.04102 54.3965 2.01758C56.3691 2.97461 57.8828 4.3125 58.9375 6.03125C60.0117 7.75 60.5488 9.75195 60.5488 12.0371C60.5488 14.3418 60.0898 16.4707 59.1719 18.4238C58.2539 20.377 56.9453 22.3105 55.2461 24.2246C53.5469 26.1191 51.5254 28.1797 49.1816 30.4062L41.7695 37.6426V37.9648H62.043V44ZM91.5742 44.5859C89.6406 44.5859 87.9316 44.4297 86.4473 44.1172C84.9629 43.8242 83.5859 43.3555 82.3164 42.7109V37.1152C83.6445 37.6816 85.0508 38.1699 86.5352 38.5801C88.0391 38.9707 89.6504 39.166 91.3691 39.166C93.1465 39.166 94.6797 38.8438 95.9688 38.1992C97.2578 37.5352 98.2734 36.5195 99.0156 35.1523C99.7578 33.7852 100.197 32.0469 100.334 29.9375H86.0078V24.957H100.305C100.109 22.0664 99.3379 19.918 97.9902 18.5117C96.6426 17.0859 94.6797 16.373 92.1016 16.373C90.8125 16.373 89.5039 16.5488 88.1758 16.9004C86.8477 17.2324 85.6367 17.623 84.543 18.0723L82.6094 13.0332C83.8008 12.4863 85.2461 12.0078 86.9453 11.5977C88.6445 11.168 90.4121 10.9531 92.248 10.9531C95.1973 10.9531 97.8145 11.4902 100.1 12.5645C102.385 13.6191 104.182 15.3574 105.49 17.7793C106.799 20.2012 107.453 23.4629 107.453 27.5645C107.453 31.3926 106.809 34.5664 105.52 37.0859C104.23 39.6055 102.395 41.4902 100.012 42.7402C97.6484 43.9707 94.8359 44.5859 91.5742 44.5859ZM135.461 11.5684H143.049L129.631 27.1543L144.191 44H136.252L122.277 27.5352V44H115.363V11.5684H122.277V27.3008L135.461 11.5684ZM162.531 44.5859C159.465 44.5859 156.809 43.9902 154.562 42.7988C152.316 41.6074 150.588 39.7812 149.377 37.3203C148.166 34.8594 147.561 31.7344 147.561 27.9453C147.561 24 148.225 20.7773 149.553 18.2773C150.881 15.7773 152.717 13.9316 155.061 12.7402C157.424 11.5488 160.129 10.9531 163.176 10.9531C165.109 10.9531 166.857 11.1484 168.42 11.5391C170.002 11.9102 171.34 12.3691 172.434 12.916L170.383 18.4238C169.191 17.9355 167.971 17.5254 166.721 17.1934C165.471 16.8613 164.27 16.6953 163.117 16.6953C161.223 16.6953 159.641 17.1152 158.371 17.9551C157.121 18.7949 156.184 20.0449 155.559 21.7051C154.953 23.3652 154.65 25.4258 154.65 27.8867C154.65 30.2695 154.963 32.2812 155.588 33.9219C156.213 35.543 157.141 36.7734 158.371 37.6133C159.602 38.4336 161.115 38.8438 162.912 38.8438C164.689 38.8438 166.281 38.6289 167.688 38.1992C169.094 37.7695 170.422 37.2129 171.672 36.5293V42.5059C170.441 43.209 169.123 43.7266 167.717 44.0586C166.311 44.4102 164.582 44.5859 162.531 44.5859ZM207.619 11.5684V44H200.676V17.0176H186.203V44H179.289V11.5684H207.619ZM230.412 10.9531C233.303 10.9531 235.783 11.5488 237.854 12.7402C239.924 13.9316 241.516 15.6211 242.629 17.8086C243.742 19.9961 244.299 22.6133 244.299 25.6602V29.3516H222.648C222.727 32.4961 223.566 34.918 225.168 36.6172C226.789 38.3164 229.055 39.166 231.965 39.166C234.035 39.166 235.891 38.9707 237.531 38.5801C239.191 38.1699 240.9 37.5742 242.658 36.793V42.3887C241.037 43.1504 239.387 43.707 237.707 44.0586C236.027 44.4102 234.016 44.5859 231.672 44.5859C228.488 44.5859 225.686 43.9707 223.264 42.7402C220.861 41.4902 218.977 39.6348 217.609 37.1738C216.262 34.7129 215.588 31.6562 215.588 28.0039C215.588 24.3711 216.203 21.2852 217.434 18.7461C218.664 16.207 220.393 14.2734 222.619 12.9453C224.846 11.6172 227.443 10.9531 230.412 10.9531ZM230.412 16.1387C228.244 16.1387 226.486 16.8418 225.139 18.248C223.811 19.6543 223.029 21.7148 222.795 24.4297H237.561C237.541 22.8086 237.268 21.373 236.74 20.123C236.232 18.873 235.451 17.8965 234.396 17.1934C233.361 16.4902 232.033 16.1387 230.412 16.1387ZM268.703 10.9531C272.551 10.9531 275.637 12.3594 277.961 15.1719C280.305 17.9844 281.477 22.1641 281.477 27.7109C281.477 31.3828 280.93 34.4785 279.836 36.998C278.762 39.498 277.248 41.3926 275.295 42.6816C273.361 43.9512 271.105 44.5859 268.527 44.5859C266.887 44.5859 265.461 44.3711 264.25 43.9414C263.039 43.5117 262.004 42.9551 261.145 42.2715C260.285 41.5684 259.562 40.8066 258.977 39.9863H258.566C258.664 40.7676 258.752 41.6367 258.83 42.5938C258.928 43.5312 258.977 44.3906 258.977 45.1719V58.3848H252.062V11.5684H257.688L258.654 16.0508H258.977C259.582 15.1328 260.314 14.2832 261.174 13.502C262.053 12.7207 263.107 12.1055 264.338 11.6562C265.588 11.1875 267.043 10.9531 268.703 10.9531ZM266.857 16.5781C264.963 16.5781 263.439 16.959 262.287 17.7207C261.154 18.4629 260.324 19.5859 259.797 21.0898C259.289 22.5938 259.016 24.4785 258.977 26.7441V27.7109C258.977 30.1133 259.221 32.1543 259.709 33.834C260.217 35.4941 261.047 36.7637 262.199 37.6426C263.371 38.502 264.953 38.9316 266.945 38.9316C268.625 38.9316 270.012 38.4727 271.105 37.5547C272.219 36.6367 273.049 35.3281 273.596 33.6289C274.143 31.9297 274.416 29.9277 274.416 27.623C274.416 24.127 273.791 21.4121 272.541 19.4785C271.311 17.5449 269.416 16.5781 266.857 16.5781ZM313.938 16.9883H303.273V44H296.418V16.9883H285.812V11.5684H313.938V16.9883ZM348.918 27.7109C348.918 30.4062 348.566 32.7988 347.863 34.8887C347.16 36.9785 346.135 38.7461 344.787 40.1914C343.439 41.6172 341.818 42.7109 339.924 43.4727C338.029 44.2148 335.891 44.5859 333.508 44.5859C331.281 44.5859 329.24 44.2148 327.385 43.4727C325.529 42.7109 323.918 41.6172 322.551 40.1914C321.203 38.7461 320.158 36.9785 319.416 34.8887C318.674 32.7988 318.303 30.4062 318.303 27.7109C318.303 24.1367 318.918 21.1094 320.148 18.6289C321.398 16.1289 323.176 14.2246 325.48 12.916C327.785 11.6074 330.529 10.9531 333.713 10.9531C336.701 10.9531 339.338 11.6074 341.623 12.916C343.908 14.2246 345.695 16.1289 346.984 18.6289C348.273 21.1289 348.918 24.1562 348.918 27.7109ZM325.393 27.7109C325.393 30.0742 325.676 32.0957 326.242 33.7754C326.828 35.4551 327.727 36.7441 328.938 37.6426C330.148 38.5215 331.711 38.9609 333.625 38.9609C335.539 38.9609 337.102 38.5215 338.312 37.6426C339.523 36.7441 340.412 35.4551 340.979 33.7754C341.545 32.0957 341.828 30.0742 341.828 27.7109C341.828 25.3477 341.545 23.3457 340.979 21.7051C340.412 20.0449 339.523 18.7852 338.312 17.9258C337.102 17.0469 335.529 16.6074 333.596 16.6074C330.744 16.6074 328.664 17.5645 327.355 19.4785C326.047 21.3926 325.393 24.1367 325.393 27.7109ZM384.104 19.8887C384.104 21.7637 383.527 23.2969 382.375 24.4883C381.242 25.6602 379.68 26.4316 377.688 26.8027V27.0371C379.816 27.3105 381.594 28.0625 383.02 29.293C384.445 30.5234 385.158 32.2324 385.158 34.4199C385.158 36.2754 384.689 37.9258 383.752 39.3711C382.834 40.7969 381.369 41.9297 379.357 42.7695C377.365 43.5898 374.758 44 371.535 44H356.828V11.5684H371.477C373.898 11.5684 376.057 11.832 377.951 12.3594C379.865 12.8867 381.369 13.7559 382.463 14.9668C383.557 16.1777 384.104 17.8184 384.104 19.8887ZM377.98 34.1855C377.98 32.584 377.365 31.4316 376.135 30.7285C374.924 30.0254 373.146 29.6738 370.803 29.6738H363.742V38.9316H370.949C373.137 38.9316 374.855 38.5703 376.105 37.8477C377.355 37.1055 377.98 35.8848 377.98 34.1855ZM377.102 20.5039C377.102 19.2344 376.623 18.2969 375.666 17.6914C374.709 17.0664 373.205 16.7539 371.154 16.7539H363.742V24.6055H370.217C372.482 24.6055 374.191 24.2832 375.344 23.6387C376.516 22.9746 377.102 21.9297 377.102 20.5039Z" fill="white"/>
<path d="M18.9473 44H12.0332V16.4316C12.0332 15.5137 12.043 14.5957 12.0625 13.6777C12.082 12.7598 12.1016 11.8613 12.1211 10.9824C12.1602 10.1035 12.209 9.26367 12.2676 8.46289C11.8574 8.91211 11.3496 9.40039 10.7441 9.92773C10.1582 10.4551 9.5332 11.002 8.86914 11.5684L3.94727 15.4941L0.490234 11.1289L13.2051 1.16797H18.9473V44ZM62.043 44H33.0391V38.8145L44.1426 27.5645C46.291 25.377 48.0586 23.4922 49.4453 21.9102C50.832 20.3086 51.8574 18.7949 52.5215 17.3691C53.2051 15.9434 53.5469 14.3906 53.5469 12.7109C53.5469 10.6406 52.9512 9.07812 51.7598 8.02344C50.5684 6.94922 48.9961 6.41211 47.043 6.41211C45.1875 6.41211 43.4688 6.7832 41.8867 7.52539C40.3242 8.24805 38.7031 9.2832 37.0234 10.6309L33.2441 6.08984C34.4355 5.07422 35.7051 4.14648 37.0527 3.30664C38.4199 2.4668 39.9434 1.80273 41.623 1.31445C43.3027 0.806641 45.2168 0.552734 47.3652 0.552734C50.0801 0.552734 52.4238 1.04102 54.3965 2.01758C56.3691 2.97461 57.8828 4.3125 58.9375 6.03125C60.0117 7.75 60.5488 9.75195 60.5488 12.0371C60.5488 14.3418 60.0898 16.4707 59.1719 18.4238C58.2539 20.377 56.9453 22.3105 55.2461 24.2246C53.5469 26.1191 51.5254 28.1797 49.1816 30.4062L41.7695 37.6426V37.9648H62.043V44ZM91.5742 44.5859C89.6406 44.5859 87.9316 44.4297 86.4473 44.1172C84.9629 43.8242 83.5859 43.3555 82.3164 42.7109V37.1152C83.6445 37.6816 85.0508 38.1699 86.5352 38.5801C88.0391 38.9707 89.6504 39.166 91.3691 39.166C93.1465 39.166 94.6797 38.8438 95.9688 38.1992C97.2578 37.5352 98.2734 36.5195 99.0156 35.1523C99.7578 33.7852 100.197 32.0469 100.334 29.9375H86.0078V24.957H100.305C100.109 22.0664 99.3379 19.918 97.9902 18.5117C96.6426 17.0859 94.6797 16.373 92.1016 16.373C90.8125 16.373 89.5039 16.5488 88.1758 16.9004C86.8477 17.2324 85.6367 17.623 84.543 18.0723L82.6094 13.0332C83.8008 12.4863 85.2461 12.0078 86.9453 11.5977C88.6445 11.168 90.4121 10.9531 92.248 10.9531C95.1973 10.9531 97.8145 11.4902 100.1 12.5645C102.385 13.6191 104.182 15.3574 105.49 17.7793C106.799 20.2012 107.453 23.4629 107.453 27.5645C107.453 31.3926 106.809 34.5664 105.52 37.0859C104.23 39.6055 102.395 41.4902 100.012 42.7402C97.6484 43.9707 94.8359 44.5859 91.5742 44.5859ZM135.461 11.5684H143.049L129.631 27.1543L144.191 44H136.252L122.277 27.5352V44H115.363V11.5684H122.277V27.3008L135.461 11.5684ZM162.531 44.5859C159.465 44.5859 156.809 43.9902 154.562 42.7988C152.316 41.6074 150.588 39.7812 149.377 37.3203C148.166 34.8594 147.561 31.7344 147.561 27.9453C147.561 24 148.225 20.7773 149.553 18.2773C150.881 15.7773 152.717 13.9316 155.061 12.7402C157.424 11.5488 160.129 10.9531 163.176 10.9531C165.109 10.9531 166.857 11.1484 168.42 11.5391C170.002 11.9102 171.34 12.3691 172.434 12.916L170.383 18.4238C169.191 17.9355 167.971 17.5254 166.721 17.1934C165.471 16.8613 164.27 16.6953 163.117 16.6953C161.223 16.6953 159.641 17.1152 158.371 17.9551C157.121 18.7949 156.184 20.0449 155.559 21.7051C154.953 23.3652 154.65 25.4258 154.65 27.8867C154.65 30.2695 154.963 32.2812 155.588 33.9219C156.213 35.543 157.141 36.7734 158.371 37.6133C159.602 38.4336 161.115 38.8438 162.912 38.8438C164.689 38.8438 166.281 38.6289 167.688 38.1992C169.094 37.7695 170.422 37.2129 171.672 36.5293V42.5059C170.441 43.209 169.123 43.7266 167.717 44.0586C166.311 44.4102 164.582 44.5859 162.531 44.5859ZM207.619 11.5684V44H200.676V17.0176H186.203V44H179.289V11.5684H207.619ZM230.412 10.9531C233.303 10.9531 235.783 11.5488 237.854 12.7402C239.924 13.9316 241.516 15.6211 242.629 17.8086C243.742 19.9961 244.299 22.6133 244.299 25.6602V29.3516H222.648C222.727 32.4961 223.566 34.918 225.168 36.6172C226.789 38.3164 229.055 39.166 231.965 39.166C234.035 39.166 235.891 38.9707 237.531 38.5801C239.191 38.1699 240.9 37.5742 242.658 36.793V42.3887C241.037 43.1504 239.387 43.707 237.707 44.0586C236.027 44.4102 234.016 44.5859 231.672 44.5859C228.488 44.5859 225.686 43.9707 223.264 42.7402C220.861 41.4902 218.977 39.6348 217.609 37.1738C216.262 34.7129 215.588 31.6562 215.588 28.0039C215.588 24.3711 216.203 21.2852 217.434 18.7461C218.664 16.207 220.393 14.2734 222.619 12.9453C224.846 11.6172 227.443 10.9531 230.412 10.9531ZM230.412 16.1387C228.244 16.1387 226.486 16.8418 225.139 18.248C223.811 19.6543 223.029 21.7148 222.795 24.4297H237.561C237.541 22.8086 237.268 21.373 236.74 20.123C236.232 18.873 235.451 17.8965 234.396 17.1934C233.361 16.4902 232.033 16.1387 230.412 16.1387ZM268.703 10.9531C272.551 10.9531 275.637 12.3594 277.961 15.1719C280.305 17.9844 281.477 22.1641 281.477 27.7109C281.477 31.3828 280.93 34.4785 279.836 36.998C278.762 39.498 277.248 41.3926 275.295 42.6816C273.361 43.9512 271.105 44.5859 268.527 44.5859C266.887 44.5859 265.461 44.3711 264.25 43.9414C263.039 43.5117 262.004 42.9551 261.145 42.2715C260.285 41.5684 259.562 40.8066 258.977 39.9863H258.566C258.664 40.7676 258.752 41.6367 258.83 42.5938C258.928 43.5312 258.977 44.3906 258.977 45.1719V58.3848H252.062V11.5684H257.688L258.654 16.0508H258.977C259.582 15.1328 260.314 14.2832 261.174 13.502C262.053 12.7207 263.107 12.1055 264.338 11.6562C265.588 11.1875 267.043 10.9531 268.703 10.9531ZM266.857 16.5781C264.963 16.5781 263.439 16.959 262.287 17.7207C261.154 18.4629 260.324 19.5859 259.797 21.0898C259.289 22.5938 259.016 24.4785 258.977 26.7441V27.7109C258.977 30.1133 259.221 32.1543 259.709 33.834C260.217 35.4941 261.047 36.7637 262.199 37.6426C263.371 38.502 264.953 38.9316 266.945 38.9316C268.625 38.9316 270.012 38.4727 271.105 37.5547C272.219 36.6367 273.049 35.3281 273.596 33.6289C274.143 31.9297 274.416 29.9277 274.416 27.623C274.416 24.127 273.791 21.4121 272.541 19.4785C271.311 17.5449 269.416 16.5781 266.857 16.5781ZM313.938 16.9883H303.273V44H296.418V16.9883H285.812V11.5684H313.938V16.9883ZM348.918 27.7109C348.918 30.4062 348.566 32.7988 347.863 34.8887C347.16 36.9785 346.135 38.7461 344.787 40.1914C343.439 41.6172 341.818 42.7109 339.924 43.4727C338.029 44.2148 335.891 44.5859 333.508 44.5859C331.281 44.5859 329.24 44.2148 327.385 43.4727C325.529 42.7109 323.918 41.6172 322.551 40.1914C321.203 38.7461 320.158 36.9785 319.416 34.8887C318.674 32.7988 318.303 30.4062 318.303 27.7109C318.303 24.1367 318.918 21.1094 320.148 18.6289C321.398 16.1289 323.176 14.2246 325.48 12.916C327.785 11.6074 330.529 10.9531 333.713 10.9531C336.701 10.9531 339.338 11.6074 341.623 12.916C343.908 14.2246 345.695 16.1289 346.984 18.6289C348.273 21.1289 348.918 24.1562 348.918 27.7109ZM325.393 27.7109C325.393 30.0742 325.676 32.0957 326.242 33.7754C326.828 35.4551 327.727 36.7441 328.938 37.6426C330.148 38.5215 331.711 38.9609 333.625 38.9609C335.539 38.9609 337.102 38.5215 338.312 37.6426C339.523 36.7441 340.412 35.4551 340.979 33.7754C341.545 32.0957 341.828 30.0742 341.828 27.7109C341.828 25.3477 341.545 23.3457 340.979 21.7051C340.412 20.0449 339.523 18.7852 338.312 17.9258C337.102 17.0469 335.529 16.6074 333.596 16.6074C330.744 16.6074 328.664 17.5645 327.355 19.4785C326.047 21.3926 325.393 24.1367 325.393 27.7109ZM384.104 19.8887C384.104 21.7637 383.527 23.2969 382.375 24.4883C381.242 25.6602 379.68 26.4316 377.688 26.8027V27.0371C379.816 27.3105 381.594 28.0625 383.02 29.293C384.445 30.5234 385.158 32.2324 385.158 34.4199C385.158 36.2754 384.689 37.9258 383.752 39.3711C382.834 40.7969 381.369 41.9297 379.357 42.7695C377.365 43.5898 374.758 44 371.535 44H356.828V11.5684H371.477C373.898 11.5684 376.057 11.832 377.951 12.3594C379.865 12.8867 381.369 13.7559 382.463 14.9668C383.557 16.1777 384.104 17.8184 384.104 19.8887ZM377.98 34.1855C377.98 32.584 377.365 31.4316 376.135 30.7285C374.924 30.0254 373.146 29.6738 370.803 29.6738H363.742V38.9316H370.949C373.137 38.9316 374.855 38.5703 376.105 37.8477C377.355 37.1055 377.98 35.8848 377.98 34.1855ZM377.102 20.5039C377.102 19.2344 376.623 18.2969 375.666 17.6914C374.709 17.0664 373.205 16.7539 371.154 16.7539H363.742V24.6055H370.217C372.482 24.6055 374.191 24.2832 375.344 23.6387C376.516 22.9746 377.102 21.9297 377.102 20.5039Z" fill="url(#paint0_linear_10_4612)"/>
<defs>
<linearGradient id="paint0_linear_10_4612" x1="-80" y1="-2.40508" x2="481.203" y2="124.826" gradientUnits="userSpaceOnUse">
<stop stop-color="#7BD7BD"/>
<stop offset="0.880188" stop-color="#DEF77E"/>
</linearGradient>
</defs>
</svg>
