<svg width="247" height="74" viewBox="0 0 247 74" fill="none" xmlns="http://www.w3.org/2000/svg">
<path d="M24.5371 0.636719C28.6712 0.636719 32.3984 1.28776 35.7188 2.58984C39.0391 3.85938 41.6758 5.76367 43.6289 8.30273C45.582 10.8418 46.5586 13.9831 46.5586 17.7266C46.5586 20.6237 45.9564 23.1465 44.752 25.2949C43.5801 27.4434 41.985 29.3314 39.9668 30.959C37.9486 32.554 35.6862 33.9701 33.1797 35.207C35.9792 36.5742 38.5508 38.153 40.8945 39.9434C43.2708 41.7012 45.1751 43.7682 46.6074 46.1445C48.0723 48.5208 48.8047 51.304 48.8047 54.4941C48.8047 58.498 47.7793 61.9648 45.7285 64.8945C43.7103 67.7917 40.8945 70.0378 37.2812 71.6328C33.668 73.1953 29.4525 73.9766 24.6348 73.9766C19.459 73.9766 15.0482 73.2116 11.4023 71.6816C7.75651 70.1517 4.98958 67.9707 3.10156 65.1387C1.21354 62.2741 0.269531 58.8561 0.269531 54.8848C0.269531 51.597 0.920573 48.7487 2.22266 46.3398C3.52474 43.931 5.26628 41.8477 7.44727 40.0898C9.66081 38.332 12.0859 36.8509 14.7227 35.6465C12.4766 34.3118 10.4258 32.8145 8.57031 31.1543C6.71484 29.4616 5.23372 27.5247 4.12695 25.3438C3.05273 23.1302 2.51562 20.5749 2.51562 17.6777C2.51562 13.9668 3.50846 10.8581 5.49414 8.35156C7.47982 5.8125 10.1328 3.89193 13.4531 2.58984C16.806 1.28776 20.5007 0.636719 24.5371 0.636719ZM11.207 54.4453C11.207 57.5703 12.3138 60.1419 14.5273 62.1602C16.7409 64.1784 20.0449 65.1875 24.4395 65.1875C28.8014 65.1875 32.1217 64.1947 34.4004 62.209C36.679 60.2233 37.8184 57.6029 37.8184 54.3477C37.8184 52.2643 37.2324 50.4251 36.0605 48.8301C34.9212 47.235 33.375 45.819 31.4219 44.582C29.5013 43.3125 27.3691 42.1406 25.0254 41.0664L23.4629 40.4316C20.9238 41.5059 18.7428 42.7266 16.9199 44.0938C15.097 45.4284 13.681 46.9421 12.6719 48.6348C11.6953 50.3275 11.207 52.2643 11.207 54.4453ZM24.4395 9.47461C21.2819 9.47461 18.6777 10.2559 16.627 11.8184C14.6087 13.3483 13.5996 15.5618 13.5996 18.459C13.5996 20.5098 14.0879 22.2676 15.0645 23.7324C16.0736 25.1973 17.4245 26.4668 19.1172 27.541C20.8099 28.5827 22.6816 29.5592 24.7324 30.4707C26.7181 29.5918 28.5085 28.6315 30.1035 27.5898C31.7311 26.5156 33.0169 25.2461 33.9609 23.7812C34.9375 22.2839 35.4258 20.4935 35.4258 18.4102C35.4258 15.5456 34.4004 13.3483 32.3496 11.8184C30.3314 10.2559 27.6947 9.47461 24.4395 9.47461ZM131.861 73H120.289V27.9316H105.299C104.648 36.1348 103.834 43.1497 102.857 48.9766C101.881 54.8034 100.66 59.556 99.1953 63.2344C97.7305 66.8802 95.9238 69.5495 93.7754 71.2422C91.627 72.9349 89.0391 73.7812 86.0117 73.7812C84.6771 73.7812 83.4727 73.6836 82.3984 73.4883C81.3242 73.3255 80.3639 73.0651 79.5176 72.707V63.6738C80.071 63.8691 80.6732 64.0319 81.3242 64.1621C81.9753 64.2923 82.6426 64.3574 83.3262 64.3574C84.5306 64.3574 85.6374 63.8691 86.6465 62.8926C87.6882 61.8835 88.6484 60.3047 89.5273 58.1562C90.4062 56.0078 91.2038 53.1758 91.9199 49.6602C92.6361 46.112 93.2871 41.8151 93.873 36.7695C94.459 31.6914 94.9798 25.7507 95.4355 18.9473H131.861V73ZM169.85 17.9219C174.667 17.9219 178.801 18.9147 182.252 20.9004C185.702 22.8861 188.355 25.7018 190.211 29.3477C192.066 32.9935 192.994 37.3555 192.994 42.4336V48.5859H156.91C157.04 53.8268 158.44 57.8633 161.109 60.6953C163.811 63.5273 167.587 64.9434 172.438 64.9434C175.888 64.9434 178.98 64.6178 181.715 63.9668C184.482 63.2832 187.33 62.2904 190.26 60.9883V70.3145C187.558 71.584 184.807 72.5117 182.008 73.0977C179.208 73.6836 175.855 73.9766 171.949 73.9766C166.643 73.9766 161.972 72.9512 157.936 70.9004C153.932 68.8171 150.79 65.7246 148.512 61.623C146.266 57.5215 145.143 52.4271 145.143 46.3398C145.143 40.2852 146.168 35.1419 148.219 30.9102C150.27 26.6784 153.15 23.4557 156.861 21.2422C160.572 19.0286 164.902 17.9219 169.85 17.9219ZM169.85 26.5645C166.236 26.5645 163.307 27.7363 161.061 30.0801C158.847 32.4238 157.545 35.8581 157.154 40.3828H181.764C181.731 37.681 181.275 35.2884 180.396 33.2051C179.55 31.1217 178.248 29.4941 176.49 28.3223C174.765 27.1504 172.551 26.5645 169.85 26.5645ZM246.754 27.9805H228.98V73H217.555V27.9805H199.879V18.9473H246.754V27.9805Z" fill="white"/>
<path d="M24.5371 0.636719C28.6712 0.636719 32.3984 1.28776 35.7188 2.58984C39.0391 3.85938 41.6758 5.76367 43.6289 8.30273C45.582 10.8418 46.5586 13.9831 46.5586 17.7266C46.5586 20.6237 45.9564 23.1465 44.752 25.2949C43.5801 27.4434 41.985 29.3314 39.9668 30.959C37.9486 32.554 35.6862 33.9701 33.1797 35.207C35.9792 36.5742 38.5508 38.153 40.8945 39.9434C43.2708 41.7012 45.1751 43.7682 46.6074 46.1445C48.0723 48.5208 48.8047 51.304 48.8047 54.4941C48.8047 58.498 47.7793 61.9648 45.7285 64.8945C43.7103 67.7917 40.8945 70.0378 37.2812 71.6328C33.668 73.1953 29.4525 73.9766 24.6348 73.9766C19.459 73.9766 15.0482 73.2116 11.4023 71.6816C7.75651 70.1517 4.98958 67.9707 3.10156 65.1387C1.21354 62.2741 0.269531 58.8561 0.269531 54.8848C0.269531 51.597 0.920573 48.7487 2.22266 46.3398C3.52474 43.931 5.26628 41.8477 7.44727 40.0898C9.66081 38.332 12.0859 36.8509 14.7227 35.6465C12.4766 34.3118 10.4258 32.8145 8.57031 31.1543C6.71484 29.4616 5.23372 27.5247 4.12695 25.3438C3.05273 23.1302 2.51562 20.5749 2.51562 17.6777C2.51562 13.9668 3.50846 10.8581 5.49414 8.35156C7.47982 5.8125 10.1328 3.89193 13.4531 2.58984C16.806 1.28776 20.5007 0.636719 24.5371 0.636719ZM11.207 54.4453C11.207 57.5703 12.3138 60.1419 14.5273 62.1602C16.7409 64.1784 20.0449 65.1875 24.4395 65.1875C28.8014 65.1875 32.1217 64.1947 34.4004 62.209C36.679 60.2233 37.8184 57.6029 37.8184 54.3477C37.8184 52.2643 37.2324 50.4251 36.0605 48.8301C34.9212 47.235 33.375 45.819 31.4219 44.582C29.5013 43.3125 27.3691 42.1406 25.0254 41.0664L23.4629 40.4316C20.9238 41.5059 18.7428 42.7266 16.9199 44.0938C15.097 45.4284 13.681 46.9421 12.6719 48.6348C11.6953 50.3275 11.207 52.2643 11.207 54.4453ZM24.4395 9.47461C21.2819 9.47461 18.6777 10.2559 16.627 11.8184C14.6087 13.3483 13.5996 15.5618 13.5996 18.459C13.5996 20.5098 14.0879 22.2676 15.0645 23.7324C16.0736 25.1973 17.4245 26.4668 19.1172 27.541C20.8099 28.5827 22.6816 29.5592 24.7324 30.4707C26.7181 29.5918 28.5085 28.6315 30.1035 27.5898C31.7311 26.5156 33.0169 25.2461 33.9609 23.7812C34.9375 22.2839 35.4258 20.4935 35.4258 18.4102C35.4258 15.5456 34.4004 13.3483 32.3496 11.8184C30.3314 10.2559 27.6947 9.47461 24.4395 9.47461ZM131.861 73H120.289V27.9316H105.299C104.648 36.1348 103.834 43.1497 102.857 48.9766C101.881 54.8034 100.66 59.556 99.1953 63.2344C97.7305 66.8802 95.9238 69.5495 93.7754 71.2422C91.627 72.9349 89.0391 73.7812 86.0117 73.7812C84.6771 73.7812 83.4727 73.6836 82.3984 73.4883C81.3242 73.3255 80.3639 73.0651 79.5176 72.707V63.6738C80.071 63.8691 80.6732 64.0319 81.3242 64.1621C81.9753 64.2923 82.6426 64.3574 83.3262 64.3574C84.5306 64.3574 85.6374 63.8691 86.6465 62.8926C87.6882 61.8835 88.6484 60.3047 89.5273 58.1562C90.4062 56.0078 91.2038 53.1758 91.9199 49.6602C92.6361 46.112 93.2871 41.8151 93.873 36.7695C94.459 31.6914 94.9798 25.7507 95.4355 18.9473H131.861V73ZM169.85 17.9219C174.667 17.9219 178.801 18.9147 182.252 20.9004C185.702 22.8861 188.355 25.7018 190.211 29.3477C192.066 32.9935 192.994 37.3555 192.994 42.4336V48.5859H156.91C157.04 53.8268 158.44 57.8633 161.109 60.6953C163.811 63.5273 167.587 64.9434 172.438 64.9434C175.888 64.9434 178.98 64.6178 181.715 63.9668C184.482 63.2832 187.33 62.2904 190.26 60.9883V70.3145C187.558 71.584 184.807 72.5117 182.008 73.0977C179.208 73.6836 175.855 73.9766 171.949 73.9766C166.643 73.9766 161.972 72.9512 157.936 70.9004C153.932 68.8171 150.79 65.7246 148.512 61.623C146.266 57.5215 145.143 52.4271 145.143 46.3398C145.143 40.2852 146.168 35.1419 148.219 30.9102C150.27 26.6784 153.15 23.4557 156.861 21.2422C160.572 19.0286 164.902 17.9219 169.85 17.9219ZM169.85 26.5645C166.236 26.5645 163.307 27.7363 161.061 30.0801C158.847 32.4238 157.545 35.8581 157.154 40.3828H181.764C181.731 37.681 181.275 35.2884 180.396 33.2051C179.55 31.1217 178.248 29.4941 176.49 28.3223C174.765 27.1504 172.551 26.5645 169.85 26.5645ZM246.754 27.9805H228.98V73H217.555V27.9805H199.879V18.9473H246.754V27.9805Z" fill="url(#paint0_linear_10_4610)"/>
<defs>
<linearGradient id="paint0_linear_10_4610" x1="-52" y1="-4.61991" x2="324.63" y2="28.2365" gradientUnits="userSpaceOnUse">
<stop stop-color="#7BD7BD"/>
<stop offset="0.880188" stop-color="#DEF77E"/>
</linearGradient>
</defs>
</svg>
