<svg width="73" height="61" viewBox="0 0 73 61" fill="none" xmlns="http://www.w3.org/2000/svg">
<path fill-rule="evenodd" clip-rule="evenodd" d="M0.372924 23.3375C-0.210619 23.5266 -0.0744021 24.3877 0.53906 24.3877H2.04102L5.57205 33.5561L9.10307 24.3877H14.4257L17.9568 33.5561L21.4878 24.3877H26.9634L30.4944 33.5561L34.0254 24.3877H39.3481L42.8791 33.5561L46.4101 24.3877H52.2422C54.6216 24.3877 56.5506 26.3155 56.5506 28.6936V32.3064C56.5506 34.5399 54.8491 36.3762 52.6708 36.5912L49.1479 27.4438L45.6169 36.6123H40.2942L36.7632 27.4438L33.2322 36.6123H27.7566L24.2256 27.4438L20.6946 36.6123H15.3719L11.8409 27.4438L8.30983 36.6123H0.539045C-0.0744169 36.6123 -0.210634 37.4734 0.372908 37.6625L72.2953 60.9734C72.6432 61.0861 73 60.8269 73 60.4614V0.538629C73 0.173097 72.6432 -0.0861148 72.2953 0.0266467L0.372924 23.3375Z" fill="white"/>
<path fill-rule="evenodd" clip-rule="evenodd" d="M0.372924 23.3375C-0.210619 23.5266 -0.0744021 24.3877 0.53906 24.3877H2.04102L5.57205 33.5561L9.10307 24.3877H14.4257L17.9568 33.5561L21.4878 24.3877H26.9634L30.4944 33.5561L34.0254 24.3877H39.3481L42.8791 33.5561L46.4101 24.3877H52.2422C54.6216 24.3877 56.5506 26.3155 56.5506 28.6936V32.3064C56.5506 34.5399 54.8491 36.3762 52.6708 36.5912L49.1479 27.4438L45.6169 36.6123H40.2942L36.7632 27.4438L33.2322 36.6123H27.7566L24.2256 27.4438L20.6946 36.6123H15.3719L11.8409 27.4438L8.30983 36.6123H0.539045C-0.0744169 36.6123 -0.210634 37.4734 0.372908 37.6625L72.2953 60.9734C72.6432 61.0861 73 60.8269 73 60.4614V0.538629C73 0.173097 72.6432 -0.0861148 72.2953 0.0266467L0.372924 23.3375Z" fill="url(#paint0_linear_202_6)"/>
<defs>
<linearGradient id="paint0_linear_202_6" x1="-12.1713" y1="19.1611" x2="163.058" y2="4.35904" gradientUnits="userSpaceOnUse">
<stop offset="0.0244688" stop-color="#7BD7BD"/>
<stop offset="0.453042" stop-color="#DEF77E"/>
</linearGradient>
</defs>
</svg>
