<svg width="678" height="567" viewBox="0 0 678 567" fill="none" xmlns="http://www.w3.org/2000/svg">
<path fill-rule="evenodd" clip-rule="evenodd" d="M3.46228 216.797C-1.95532 218.554 -0.690674 226.553 5.00476 226.553H18.9492L51.7318 311.725L84.5144 226.553H133.931L166.714 311.725L199.496 226.553H250.332L283.115 311.725L315.897 226.553H365.314L398.097 311.725L430.879 226.553H485.025C507.116 226.553 525.025 244.462 525.025 266.553V300.116C525.025 320.864 509.227 337.922 489.005 339.92L456.297 254.944L423.515 340.116H374.098L341.316 254.944L308.533 340.116H257.697L224.914 254.944L192.132 340.116H142.715L109.932 254.944L77.1498 340.116H5.00464C-0.690918 340.116 -1.95557 348.115 3.46216 349.872L671.201 566.421C674.431 567.469 677.744 565.061 677.744 561.665V5.00368C677.744 1.60802 674.431 -0.799977 671.201 0.247538L3.46228 216.797Z" fill="url(#paint0_linear_4_11)"/>
<defs>
<linearGradient id="paint0_linear_4_11" x1="-113" y1="178" x2="1513.87" y2="40.6554" gradientUnits="userSpaceOnUse">
<stop offset="0.0244688" stop-color="#7BD7BD"/>
<stop offset="0.453042" stop-color="#DEF77E"/>
</linearGradient>
</defs>
</svg>
