<svg width="277" height="61" viewBox="0 0 277 61" fill="none" xmlns="http://www.w3.org/2000/svg">
<path fill-rule="evenodd" clip-rule="evenodd" d="M0.372924 23.3375C-0.210619 23.5266 -0.0744021 24.3877 0.53906 24.3877H2.04102L5.57205 33.5561L9.10307 24.3877H14.4257L17.9568 33.5561L21.4878 24.3877H26.9634L30.4944 33.5561L34.0254 24.3877H39.3481L42.8791 33.5561L46.4101 24.3877H52.2422C54.6216 24.3877 56.5506 26.3155 56.5506 28.6936V32.3064C56.5506 34.5399 54.8491 36.3762 52.6708 36.5912L49.1479 27.4438L45.6169 36.6123H40.2942L36.7632 27.4438L33.2322 36.6123H27.7566L24.2256 27.4438L20.6946 36.6123H15.3719L11.8409 27.4438L8.30983 36.6123H0.539045C-0.0744169 36.6123 -0.210634 37.4734 0.372908 37.6625L72.2953 60.9734C72.6432 61.0861 73 60.8269 73 60.4614V0.538629C73 0.173097 72.6432 -0.0861148 72.2953 0.0266467L0.372924 23.3375Z" fill="white"/>
<path fill-rule="evenodd" clip-rule="evenodd" d="M0.372924 23.3375C-0.210619 23.5266 -0.0744021 24.3877 0.53906 24.3877H2.04102L5.57205 33.5561L9.10307 24.3877H14.4257L17.9568 33.5561L21.4878 24.3877H26.9634L30.4944 33.5561L34.0254 24.3877H39.3481L42.8791 33.5561L46.4101 24.3877H52.2422C54.6216 24.3877 56.5506 26.3155 56.5506 28.6936V32.3064C56.5506 34.5399 54.8491 36.3762 52.6708 36.5912L49.1479 27.4438L45.6169 36.6123H40.2942L36.7632 27.4438L33.2322 36.6123H27.7566L24.2256 27.4438L20.6946 36.6123H15.3719L11.8409 27.4438L8.30983 36.6123H0.539045C-0.0744169 36.6123 -0.210634 37.4734 0.372908 37.6625L72.2953 60.9734C72.6432 61.0861 73 60.8269 73 60.4614V0.538629C73 0.173097 72.6432 -0.0861148 72.2953 0.0266467L0.372924 23.3375Z" fill="url(#paint0_linear_10_4499)"/>
<path d="M88.9443 43.6436H82.6214L73.1013 30.8477V43.6436H67.5329V18.3972H73.1013V30.6232L82.5137 18.3972H88.4413L78.8673 30.5196L88.9443 43.6436Z" fill="#0A0308"/>
<path d="M100.454 18.3972C103.843 18.3972 106.316 19.0994 107.872 20.5039C109.429 21.8969 110.208 23.8195 110.208 26.2716C110.208 27.3768 110.034 28.4359 109.687 29.449C109.339 30.4506 108.771 31.3428 107.98 32.1256C107.202 32.9084 106.16 33.5301 104.855 33.9906C103.549 34.4396 101.939 34.6641 100.023 34.6641H97.6338V43.6436H92.0654V18.3972H100.454ZM100.167 22.7834H97.6338V30.2779H99.466C100.508 30.2779 101.412 30.1455 102.178 29.8807C102.945 29.6159 103.538 29.2015 103.957 28.6374C104.376 28.0733 104.585 27.348 104.585 26.4615C104.585 25.2182 104.226 24.2972 103.508 23.6986C102.789 23.0884 101.675 22.7834 100.167 22.7834Z" fill="#0A0308"/>
<path d="M138.818 30.9859C138.818 32.9315 138.566 34.7043 138.063 36.3046C137.56 37.8933 136.794 39.2632 135.764 40.4144C134.746 41.5657 133.453 42.4521 131.884 43.0738C130.315 43.6839 128.459 43.989 126.316 43.989C124.172 43.989 122.316 43.6839 120.747 43.0738C119.179 42.4521 117.879 41.5657 116.849 40.4144C115.832 39.2632 115.071 37.8875 114.568 36.2873C114.065 34.6871 113.814 32.9084 113.814 30.9513C113.814 28.338 114.257 26.0644 115.143 24.1303C116.041 22.1847 117.418 20.6766 119.274 19.606C121.131 18.5353 123.49 18 126.352 18C129.202 18 131.543 18.5353 133.375 19.606C135.219 20.6766 136.584 22.1847 137.47 24.1303C138.369 26.0759 138.818 28.3611 138.818 30.9859ZM119.652 30.9859C119.652 32.7473 119.879 34.2669 120.334 35.5447C120.801 36.8111 121.526 37.7896 122.508 38.4804C123.49 39.1596 124.759 39.4992 126.316 39.4992C127.896 39.4992 129.178 39.1596 130.16 38.4804C131.142 37.7896 131.854 36.8111 132.297 35.5447C132.752 34.2669 132.98 32.7473 132.98 30.9859C132.98 28.338 132.465 26.2543 131.435 24.7347C130.405 23.2151 128.711 22.4553 126.352 22.4553C124.783 22.4553 123.502 22.8006 122.508 23.4914C121.526 24.1706 120.801 25.1491 120.334 26.427C119.879 27.6934 119.652 29.213 119.652 30.9859Z" fill="#0A0308"/>
<path d="M165.488 43.6436H159.165L149.645 30.8477V43.6436H144.076V18.3972H149.645V30.6232L159.057 18.3972H164.985L155.411 30.5196L165.488 43.6436Z" fill="#0A0308"/>
<path d="M192.445 30.9859C192.445 32.9315 192.194 34.7043 191.691 36.3046C191.188 37.8933 190.421 39.2632 189.392 40.4144C188.374 41.5657 187.08 42.4521 185.512 43.0738C183.943 43.6839 182.087 43.989 179.943 43.989C177.8 43.989 175.944 43.6839 174.375 43.0738C172.806 42.4521 171.507 41.5657 170.477 40.4144C169.459 39.2632 168.699 37.8875 168.196 36.2873C167.693 34.6871 167.441 32.9084 167.441 30.9513C167.441 28.338 167.884 26.0644 168.771 24.1303C169.669 22.1847 171.046 20.6766 172.902 19.606C174.758 18.5353 177.117 18 179.979 18C182.829 18 185.17 18.5353 187.003 19.606C188.847 20.6766 190.212 22.1847 191.098 24.1303C191.996 26.0759 192.445 28.3611 192.445 30.9859ZM173.279 30.9859C173.279 32.7473 173.507 34.2669 173.962 35.5447C174.429 36.8111 175.153 37.7896 176.135 38.4804C177.117 39.1596 178.386 39.4992 179.943 39.4992C181.524 39.4992 182.805 39.1596 183.787 38.4804C184.769 37.7896 185.482 36.8111 185.925 35.5447C186.38 34.2669 186.607 32.7473 186.607 30.9859C186.607 28.338 186.092 26.2543 185.063 24.7347C184.033 23.2151 182.338 22.4553 179.979 22.4553C178.41 22.4553 177.129 22.8006 176.135 23.4914C175.153 24.1706 174.429 25.1491 173.962 26.427C173.507 27.6934 173.279 29.213 173.279 30.9859Z" fill="#0A0308"/>
<path d="M218.271 18.3972V39.1884H221.774V51H216.403V43.6436H199.949V51H194.578V39.1884H196.608C197.291 37.876 197.949 36.4888 198.584 35.0267C199.219 33.5646 199.811 31.9932 200.362 30.3124C200.913 28.6316 201.41 26.8069 201.853 24.8383C202.296 22.8697 202.668 20.7227 202.967 18.3972H218.271ZM212.721 22.8524H207.386C207.206 24.0727 206.961 25.3736 206.649 26.7551C206.338 28.1366 205.967 29.5468 205.536 30.9859C205.116 32.4134 204.643 33.8237 204.117 35.2166C203.602 36.6096 203.051 37.9335 202.464 39.1884H212.721V22.8524Z" fill="#0A0308"/>
<path d="M225.649 18.3972H230.661V30.5887C230.661 31.1873 230.649 31.8493 230.625 32.5746C230.613 33.2998 230.589 34.0136 230.553 34.7159C230.529 35.4066 230.505 36.011 230.481 36.529C230.457 37.0471 230.433 37.3925 230.409 37.5652H230.517L242.642 18.3972H249.306V43.6436H244.348V31.5212C244.348 30.8765 244.36 30.1743 244.384 29.4144C244.408 28.6546 244.438 27.9178 244.474 27.2041C244.522 26.4903 244.564 25.8744 244.6 25.3564C244.636 24.8268 244.66 24.4757 244.672 24.303H244.528L232.349 43.6436H225.649V18.3972Z" fill="#0A0308"/>
<path d="M276.533 43.6436H270.982V22.8524H264.552C264.408 23.9346 264.253 25.1146 264.085 26.3925C263.917 27.6703 263.744 28.9597 263.564 30.2606C263.384 31.5615 263.193 32.7991 262.989 33.9733C262.798 35.1476 262.606 36.1779 262.414 37.0644C262.103 38.5379 261.678 39.7928 261.139 40.8289C260.612 41.8535 259.888 42.6363 258.966 43.1774C258.055 43.7185 256.864 43.989 255.391 43.989C254.9 43.989 254.427 43.9545 253.972 43.8854C253.529 43.8163 253.116 43.7242 252.733 43.6091V39.2229C253.044 39.3265 253.355 39.4129 253.667 39.4819C253.978 39.5395 254.319 39.5683 254.69 39.5683C255.169 39.5683 255.565 39.4186 255.876 39.1193C256.199 38.8085 256.487 38.2847 256.738 37.5479C256.99 36.7996 257.241 35.7692 257.493 34.4568C257.6 33.8812 257.744 33.0696 257.924 32.022C258.103 30.9628 258.307 29.7253 258.534 28.3093C258.762 26.8817 258.995 25.3276 259.235 23.6468C259.486 21.966 259.726 20.2161 259.953 18.3972H276.533V43.6436Z" fill="#0A0308"/>
<defs>
<linearGradient id="paint0_linear_10_4499" x1="-12.1713" y1="19.1611" x2="163.058" y2="4.35904" gradientUnits="userSpaceOnUse">
<stop offset="0.0244688" stop-color="#7BD7BD"/>
<stop offset="0.453042" stop-color="#DEF77E"/>
</linearGradient>
</defs>
</svg>
