<svg width="685" height="153" viewBox="0 0 685 153" fill="none" xmlns="http://www.w3.org/2000/svg">
<path fill-rule="evenodd" clip-rule="evenodd" d="M0.923771 58.7288C-0.521724 59.1973 -0.184301 61.3302 1.33531 61.3302H5.05582L13.8025 84.0414L22.5492 61.3302H35.734L44.4807 84.0414L53.2275 61.3302H66.791L75.5377 84.0414L84.2844 61.3302H97.4692L106.216 84.0414L114.963 61.3302H129.409C135.303 61.3302 140.081 66.1056 140.081 71.9963V80.9457C140.081 86.4783 135.867 91.027 130.471 91.5597L121.744 68.9006L112.998 91.6118H99.8129L91.0662 68.9006L82.3195 91.6118H68.7559L60.0092 68.9006L51.2625 91.6118H38.0777L29.331 68.9006L20.5843 91.6118H1.33527C-0.184338 91.6118 -0.521763 93.7448 0.923732 94.2133L179.083 151.957C179.945 152.236 180.828 151.594 180.828 150.688V2.25367C180.828 1.34821 179.945 0.706118 179.083 0.98544L0.923771 58.7288Z" fill="white"/>
<path d="M220.324 109.029H204.662L181.079 77.3322V109.029H167.286V46.4909H181.079V76.7761L204.395 46.4909H219.078L195.362 76.5195L220.324 109.029Z" fill="#0A0308"/>
<path d="M248.835 46.4909C257.229 46.4909 263.355 48.2305 267.211 51.7096C271.067 55.1601 272.995 59.9225 272.995 65.9966C272.995 68.7343 272.565 71.3579 271.705 73.8674C270.845 76.3484 269.436 78.5584 267.478 80.4976C265.55 82.4368 262.969 83.9767 259.736 85.1174C256.503 86.2295 252.513 86.7856 247.767 86.7856H241.849V109.029H228.055V46.4909H248.835ZM248.123 57.3559H241.849V75.9206H246.387C248.968 75.9206 251.208 75.5927 253.106 74.9368C255.005 74.2809 256.473 73.2542 257.511 71.8569C258.549 70.4596 259.068 68.663 259.068 66.4672C259.068 63.3873 258.178 61.106 256.399 59.6231C254.619 58.1117 251.86 57.3559 248.123 57.3559Z" fill="#0A0308"/>
<path d="M343.865 77.6744C343.865 82.4938 343.242 86.8854 341.996 90.8493C340.751 94.7847 338.852 98.1782 336.301 101.03C333.78 103.882 330.576 106.077 326.69 107.617C322.804 109.129 318.206 109.884 312.897 109.884C307.587 109.884 302.989 109.129 299.103 107.617C295.217 106.077 291.999 103.882 289.448 101.03C286.926 98.1782 285.043 94.7704 283.797 90.8065C282.551 86.8427 281.928 82.4368 281.928 77.5889C281.928 71.1155 283.026 65.4833 285.221 60.6925C287.446 55.8731 290.857 52.1373 295.455 49.4852C300.052 46.8331 305.896 45.5071 312.986 45.5071C320.046 45.5071 325.845 46.8331 330.383 49.4852C334.951 52.1373 338.333 55.8731 340.528 60.6925C342.753 65.5118 343.865 71.1725 343.865 77.6744ZM296.389 77.6744C296.389 82.0375 296.953 85.8018 298.08 88.9672C299.237 92.1041 301.031 94.528 303.464 96.2391C305.896 97.9216 309.04 98.7628 312.897 98.7628C316.812 98.7628 319.986 97.9216 322.419 96.2391C324.851 94.528 326.616 92.1041 327.714 88.9672C328.841 85.8018 329.404 82.0375 329.404 77.6744C329.404 71.1155 328.129 65.9539 325.578 62.1896C323.027 58.4253 318.829 56.5432 312.986 56.5432C309.1 56.5432 305.926 57.3987 303.464 59.1098C301.031 60.7923 299.237 63.2162 298.08 66.3816C296.953 69.5185 296.389 73.2828 296.389 77.6744Z" fill="#0A0308"/>
<path d="M409.93 109.029H394.268L370.685 77.3322V109.029H356.892V46.4909H370.685V76.7761L394.001 46.4909H408.684L384.968 76.5195L409.93 109.029Z" fill="#0A0308"/>
<path d="M476.706 77.6744C476.706 82.4938 476.083 86.8854 474.837 90.8493C473.592 94.7847 471.693 98.1782 469.142 101.03C466.621 103.882 463.417 106.077 459.531 107.617C455.645 109.129 451.047 109.884 445.738 109.884C440.428 109.884 435.83 109.129 431.944 107.617C428.058 106.077 424.84 103.882 422.289 101.03C419.767 98.1782 417.884 94.7704 416.638 90.8065C415.392 86.8427 414.769 82.4368 414.769 77.5889C414.769 71.1155 415.867 65.4833 418.062 60.6925C420.286 55.8731 423.698 52.1373 428.296 49.4852C432.893 46.8331 438.737 45.5071 445.827 45.5071C452.886 45.5071 458.686 46.8331 463.224 49.4852C467.792 52.1373 471.174 55.8731 473.369 60.6925C475.594 65.5118 476.706 71.1725 476.706 77.6744ZM429.23 77.6744C429.23 82.0375 429.794 85.8018 430.921 88.9672C432.078 92.1041 433.872 94.528 436.305 96.2391C438.737 97.9216 441.881 98.7628 445.738 98.7628C449.653 98.7628 452.827 97.9216 455.26 96.2391C457.692 94.528 459.457 92.1041 460.554 88.9672C461.682 85.8018 462.245 82.0375 462.245 77.6744C462.245 71.1155 460.97 65.9539 458.419 62.1896C455.868 58.4253 451.67 56.5432 445.827 56.5432C441.941 56.5432 438.767 57.3987 436.305 59.1098C433.872 60.7923 432.078 63.2162 430.921 66.3816C429.794 69.5185 429.23 73.2828 429.23 77.6744Z" fill="#0A0308"/>
<path d="M540.679 46.4909V97.9929H549.356V127.251H536.052V109.029H495.294V127.251H481.99V97.9929H487.018C488.709 94.7419 490.341 91.3056 491.913 87.6839C493.485 84.0622 494.953 80.1697 496.318 76.0062C497.682 71.8426 498.913 67.3227 500.011 62.4463C501.108 57.5698 502.028 52.2514 502.77 46.4909H540.679ZM526.93 57.5271H513.715C513.27 60.5499 512.662 63.7723 511.891 67.1944C511.12 70.6164 510.2 74.1098 509.132 77.6744C508.094 81.2105 506.922 84.7039 505.617 88.1544C504.342 91.605 502.977 94.8845 501.524 97.9929H526.93V57.5271Z" fill="#0A0308"/>
<path d="M558.956 46.4909H571.37V76.6906C571.37 78.1735 571.341 79.8132 571.281 81.6098C571.252 83.4063 571.192 85.1744 571.103 86.914C571.044 88.625 570.985 90.1221 570.925 91.4054C570.866 92.6887 570.807 93.5442 570.747 93.9719H571.014L601.049 46.4909H617.556V109.029H605.276V79.0005C605.276 77.4035 605.305 75.6639 605.365 73.7818C605.424 71.8997 605.498 70.0746 605.587 68.3065C605.706 66.5385 605.809 65.0128 605.898 63.7295C605.987 62.4177 606.047 61.548 606.076 61.1202H605.72L575.553 109.029H558.956V46.4909Z" fill="#0A0308"/>
<path d="M685 109.029H671.251V57.5271H655.322C654.966 60.2077 654.58 63.1307 654.165 66.2961C653.75 69.4615 653.32 72.6554 652.875 75.8778C652.43 79.1003 651.955 82.1659 651.451 85.0746C650.976 87.9833 650.502 90.5356 650.027 92.7314C649.256 96.3816 648.203 99.49 646.868 102.057C645.563 104.595 643.768 106.534 641.484 107.874C639.229 109.214 636.278 109.884 632.629 109.884C631.413 109.884 630.241 109.799 629.114 109.628C628.017 109.457 626.993 109.229 626.044 108.943V98.0784C626.815 98.3351 627.587 98.5489 628.358 98.72C629.129 98.8626 629.974 98.9339 630.894 98.9339C632.081 98.9339 633.059 98.5632 633.831 97.8218C634.632 97.0518 635.344 95.7543 635.966 93.9292C636.589 92.0756 637.212 89.5233 637.835 86.2723C638.102 84.8465 638.458 82.836 638.903 80.2409C639.348 77.6174 639.852 74.5518 640.416 71.0442C640.98 67.508 641.558 63.6582 642.151 59.4947C642.774 55.3312 643.367 50.9966 643.931 46.4909H685V109.029Z" fill="#0A0308"/>
</svg>
