<svg width="246" height="61" viewBox="0 0 246 61" fill="none" xmlns="http://www.w3.org/2000/svg">
<path fill-rule="evenodd" clip-rule="evenodd" d="M0.372924 23.3375C-0.210619 23.5266 -0.0744021 24.3877 0.53906 24.3877H2.04102L5.57205 33.5561L9.10307 24.3877H14.4257L17.9568 33.5561L21.4878 24.3877H26.9634L30.4944 33.5561L34.0254 24.3877H39.3481L42.8791 33.5561L46.4101 24.3877H52.2422C54.6216 24.3877 56.5506 26.3155 56.5506 28.6936V32.3064C56.5506 34.5399 54.8491 36.3762 52.6708 36.5912L49.1479 27.4438L45.6169 36.6123H40.2942L36.7632 27.4438L33.2322 36.6123H27.7566L24.2256 27.4438L20.6946 36.6123H15.3719L11.8409 27.4438L8.30983 36.6123H0.539045C-0.0744169 36.6123 -0.210634 37.4734 0.372908 37.6625L72.2953 60.9734C72.6432 61.0861 73 60.8269 73 60.4614V0.538629C73 0.173097 72.6432 -0.0861148 72.2953 0.0266467L0.372924 23.3375Z" fill="white"/>
<path fill-rule="evenodd" clip-rule="evenodd" d="M0.372924 23.3375C-0.210619 23.5266 -0.0744021 24.3877 0.53906 24.3877H2.04102L5.57205 33.5561L9.10307 24.3877H14.4257L17.9568 33.5561L21.4878 24.3877H26.9634L30.4944 33.5561L34.0254 24.3877H39.3481L42.8791 33.5561L46.4101 24.3877H52.2422C54.6216 24.3877 56.5506 26.3155 56.5506 28.6936V32.3064C56.5506 34.5399 54.8491 36.3762 52.6708 36.5912L49.1479 27.4438L45.6169 36.6123H40.2942L36.7632 27.4438L33.2322 36.6123H27.7566L24.2256 27.4438L20.6946 36.6123H15.3719L11.8409 27.4438L8.30983 36.6123H0.539045C-0.0744169 36.6123 -0.210634 37.4734 0.372908 37.6625L72.2953 60.9734C72.6432 61.0861 73 60.8269 73 60.4614V0.538629C73 0.173097 72.6432 -0.0861148 72.2953 0.0266467L0.372924 23.3375Z" fill="url(#paint0_linear_10_4499)"/>
<path d="M65 42.3784V17.3931H70.2979V42.3784H65Z" fill="black"/>
<path d="M86.2256 42.3784H80.9277V21.8022H74.1431V17.3931H93.0103V21.8022H86.2256V42.3784Z" fill="black"/>
<path d="M107.468 21.4434C106.454 21.4434 105.554 21.6427 104.768 22.0415C103.993 22.4289 103.338 22.9928 102.803 23.7334C102.279 24.474 101.88 25.3683 101.606 26.4165C101.333 27.4647 101.196 28.6439 101.196 29.9541C101.196 31.7201 101.413 33.2297 101.846 34.4829C102.29 35.7248 102.974 36.6761 103.896 37.3369C104.819 37.9863 106.01 38.311 107.468 38.311C108.482 38.311 109.496 38.1971 110.51 37.9692C111.536 37.7414 112.646 37.4167 113.843 36.9951V41.4385C112.738 41.8942 111.65 42.2189 110.579 42.4126C109.508 42.6177 108.306 42.7202 106.973 42.7202C104.398 42.7202 102.279 42.1904 100.615 41.1309C98.9632 40.0599 97.7384 38.5674 96.9409 36.6533C96.1434 34.7279 95.7446 32.4834 95.7446 29.9199C95.7446 28.0286 96.001 26.2969 96.5137 24.7246C97.0264 23.1523 97.7783 21.7909 98.7695 20.6401C99.7607 19.4894 100.986 18.6007 102.444 17.9741C103.902 17.3475 105.577 17.0342 107.468 17.0342C108.71 17.0342 109.952 17.1937 111.194 17.5127C112.447 17.8203 113.643 18.2476 114.783 18.7944L113.074 23.1011C112.139 22.6567 111.2 22.2694 110.254 21.939C109.308 21.6086 108.38 21.4434 107.468 21.4434Z" fill="black"/>
<path d="M126.455 17.3931C128.722 17.3931 130.591 17.6665 132.061 18.2134C133.542 18.7603 134.641 19.5863 135.359 20.6914C136.077 21.7965 136.436 23.1922 136.436 24.8784C136.436 26.0177 136.219 27.0146 135.786 27.8691C135.353 28.7236 134.784 29.4471 134.077 30.0396C133.371 30.632 132.607 31.1162 131.787 31.4922L139.136 42.3784H133.257L127.292 32.791H124.473V42.3784H119.175V17.3931H126.455ZM126.079 21.7339H124.473V28.4844H126.182C127.936 28.4844 129.189 28.1938 129.941 27.6128C130.705 27.0203 131.086 26.1545 131.086 25.0151C131.086 23.8302 130.676 22.9871 129.856 22.4858C129.047 21.9845 127.788 21.7339 126.079 21.7339Z" fill="black"/>
<path d="M164.958 29.8516C164.958 31.777 164.719 33.5316 164.241 35.1152C163.762 36.6875 163.033 38.0433 162.053 39.1826C161.085 40.3219 159.854 41.1992 158.362 41.8145C156.869 42.4183 155.103 42.7202 153.064 42.7202C151.025 42.7202 149.259 42.4183 147.766 41.8145C146.274 41.1992 145.037 40.3219 144.058 39.1826C143.089 38.0433 142.366 36.6818 141.887 35.0981C141.409 33.5145 141.169 31.7542 141.169 29.8174C141.169 27.2311 141.591 24.981 142.434 23.0669C143.289 21.1414 144.599 19.6489 146.365 18.5894C148.131 17.5298 150.375 17 153.098 17C155.81 17 158.037 17.5298 159.78 18.5894C161.535 19.6489 162.834 21.1414 163.677 23.0669C164.531 24.9924 164.958 27.2539 164.958 29.8516ZM146.724 29.8516C146.724 31.5947 146.94 33.0986 147.373 34.3633C147.817 35.6165 148.507 36.585 149.441 37.2686C150.375 37.9408 151.583 38.2769 153.064 38.2769C154.568 38.2769 155.787 37.9408 156.721 37.2686C157.655 36.585 158.333 35.6165 158.755 34.3633C159.188 33.0986 159.404 31.5947 159.404 29.8516C159.404 27.2311 158.914 25.1689 157.935 23.665C156.955 22.1611 155.343 21.4092 153.098 21.4092C151.606 21.4092 150.387 21.751 149.441 22.4346C148.507 23.1068 147.817 24.0752 147.373 25.3398C146.94 26.5931 146.724 28.097 146.724 29.8516Z" fill="black"/>
<path d="M180.75 21.4434C179.736 21.4434 178.835 21.6427 178.049 22.0415C177.275 22.4289 176.619 22.9928 176.084 23.7334C175.56 24.474 175.161 25.3683 174.888 26.4165C174.614 27.4647 174.478 28.6439 174.478 29.9541C174.478 31.7201 174.694 33.2297 175.127 34.4829C175.571 35.7248 176.255 36.6761 177.178 37.3369C178.101 37.9863 179.291 38.311 180.75 38.311C181.764 38.311 182.778 38.1971 183.792 37.9692C184.817 37.7414 185.928 37.4167 187.124 36.9951V41.4385C186.019 41.8942 184.931 42.2189 183.86 42.4126C182.789 42.6177 181.587 42.7202 180.254 42.7202C177.679 42.7202 175.56 42.1904 173.896 41.1309C172.244 40.0599 171.02 38.5674 170.222 36.6533C169.425 34.7279 169.026 32.4834 169.026 29.9199C169.026 28.0286 169.282 26.2969 169.795 24.7246C170.308 23.1523 171.06 21.7909 172.051 20.6401C173.042 19.4894 174.267 18.6007 175.725 17.9741C177.183 17.3475 178.858 17.0342 180.75 17.0342C181.991 17.0342 183.233 17.1937 184.475 17.5127C185.728 17.8203 186.925 18.2476 188.064 18.7944L186.355 23.1011C185.421 22.6567 184.481 22.2694 183.535 21.939C182.59 21.6086 181.661 21.4434 180.75 21.4434Z" fill="black"/>
<path d="M191.311 39.9346C191.311 38.8636 191.602 38.1117 192.183 37.6787C192.775 37.2458 193.487 37.0293 194.319 37.0293C195.128 37.0293 195.823 37.2458 196.404 37.6787C196.996 38.1117 197.292 38.8636 197.292 39.9346C197.292 40.96 196.996 41.7005 196.404 42.1562C195.823 42.612 195.128 42.8398 194.319 42.8398C193.487 42.8398 192.775 42.612 192.183 42.1562C191.602 41.7005 191.311 40.96 191.311 39.9346Z" fill="black"/>
<path d="M209.717 17.3931C211.984 17.3931 213.853 17.6665 215.322 18.2134C216.803 18.7603 217.903 19.5863 218.621 20.6914C219.338 21.7965 219.697 23.1922 219.697 24.8784C219.697 26.0177 219.481 27.0146 219.048 27.8691C218.615 28.7236 218.045 29.4471 217.339 30.0396C216.632 30.632 215.869 31.1162 215.049 31.4922L222.397 42.3784H216.519L210.554 32.791H207.734V42.3784H202.437V17.3931H209.717ZM209.341 21.7339H207.734V28.4844H209.443C211.198 28.4844 212.451 28.1938 213.203 27.6128C213.966 27.0203 214.348 26.1545 214.348 25.0151C214.348 23.8302 213.938 22.9871 213.118 22.4858C212.309 21.9845 211.05 21.7339 209.341 21.7339Z" fill="black"/>
<path d="M245.879 17.3931V33.5601C245.879 35.2804 245.497 36.8356 244.734 38.2256C243.982 39.6042 242.837 40.6979 241.299 41.5068C239.772 42.3158 237.847 42.7202 235.522 42.7202C232.218 42.7202 229.701 41.8771 227.969 40.1909C226.237 38.5047 225.371 36.2716 225.371 33.4917V17.3931H230.652V32.6885C230.652 34.7507 231.073 36.1976 231.917 37.0293C232.76 37.861 234.007 38.2769 235.659 38.2769C236.821 38.2769 237.761 38.0775 238.479 37.6787C239.208 37.2799 239.744 36.6647 240.085 35.833C240.427 35.0013 240.598 33.9417 240.598 32.6543V17.3931H245.879Z" fill="black"/>
<defs>
<linearGradient id="paint0_linear_10_4499" x1="-12.1713" y1="19.1611" x2="163.058" y2="4.35904" gradientUnits="userSpaceOnUse">
<stop offset="0.0244688" stop-color="#7BD7BD"/>
<stop offset="0.453042" stop-color="#DEF77E"/>
</linearGradient>
</defs>
</svg>
