<svg width="1212" height="295" viewBox="0 0 1212 295" fill="none" xmlns="http://www.w3.org/2000/svg">
<path fill-rule="evenodd" clip-rule="evenodd" d="M1.83824 112.862C-1.03819 113.776 -0.366747 117.941 2.65717 117.941H10.0607L27.466 162.28L44.8714 117.941H71.1082L88.5135 162.28L105.919 117.941H132.909L150.315 162.28L167.72 117.941H193.957L211.362 162.28L228.767 117.941H257.515C269.244 117.941 278.752 127.263 278.752 138.764V156.236C278.752 167.037 270.365 175.918 259.628 176.958L242.263 132.72L224.857 177.059H198.621L181.215 132.72L163.81 177.059H136.819L119.414 132.72L102.009 177.059H75.7719L58.3666 132.72L40.9613 177.059H2.65709C-0.36682 177.059 -1.03827 181.224 1.83816 182.138L356.362 294.871C358.077 295.416 359.836 294.163 359.836 292.395V2.60485C359.836 0.83711 358.077 -0.416457 356.362 0.128865L1.83824 112.862Z" fill="white"/>
<path fill-rule="evenodd" clip-rule="evenodd" d="M1.83824 112.862C-1.03819 113.776 -0.366747 117.941 2.65717 117.941H10.0607L27.466 162.28L44.8714 117.941H71.1082L88.5135 162.28L105.919 117.941H132.909L150.315 162.28L167.72 117.941H193.957L211.362 162.28L228.767 117.941H257.515C269.244 117.941 278.752 127.263 278.752 138.764V156.236C278.752 167.037 270.365 175.918 259.628 176.958L242.263 132.72L224.857 177.059H198.621L181.215 132.72L163.81 177.059H136.819L119.414 132.72L102.009 177.059H75.7719L58.3666 132.72L40.9613 177.059H2.65709C-0.36682 177.059 -1.03827 181.224 1.83816 182.138L356.362 294.871C358.077 295.416 359.836 294.163 359.836 292.395V2.60485C359.836 0.83711 358.077 -0.416457 356.362 0.128865L1.83824 112.862Z" fill="url(#paint0_linear_203_30)"/>
<path d="M320.402 204.945V84.114H346.516V204.945H320.402Z" fill="black"/>
<path d="M425.028 204.945H398.913V105.437H365.47V84.114H458.471V105.437H425.028V204.945Z" fill="black"/>
<path d="M529.739 103.702C524.74 103.702 520.304 104.666 516.429 106.594C512.61 108.468 509.38 111.195 506.741 114.776C504.158 118.358 502.192 122.683 500.844 127.752C499.496 132.821 498.822 138.524 498.822 144.86C498.822 153.4 499.889 160.701 502.024 166.762C504.214 172.767 507.583 177.368 512.132 180.564C516.681 183.704 522.55 185.275 529.739 185.275C534.737 185.275 539.735 184.724 544.733 183.622C549.788 182.52 555.263 180.949 561.16 178.911V200.399C555.713 202.603 550.349 204.173 545.07 205.11C539.791 206.102 533.866 206.598 527.296 206.598C514.603 206.598 504.158 204.036 495.958 198.912C487.815 193.732 481.778 186.514 477.847 177.258C473.915 167.946 471.95 157.092 471.95 144.695C471.95 135.548 473.213 127.173 475.741 119.57C478.268 111.966 481.974 105.382 486.86 99.8171C491.746 94.2521 497.783 89.9545 504.972 86.924C512.16 83.8936 520.416 82.3784 529.739 82.3784C535.86 82.3784 541.981 83.1498 548.103 84.6926C554.281 86.1802 560.177 88.2464 565.793 90.8911L557.369 111.718C552.764 109.569 548.131 107.696 543.47 106.098C538.808 104.5 534.231 103.702 529.739 103.702Z" fill="black"/>
<path d="M623.329 84.114C634.505 84.114 643.716 85.4364 650.96 88.0811C658.261 90.7258 663.68 94.7205 667.219 100.065C670.757 105.41 672.526 112.159 672.526 120.314C672.526 125.824 671.459 130.645 669.325 134.777C667.19 138.909 664.382 142.408 660.901 145.273C657.419 148.138 653.656 150.48 649.612 152.298L685.836 204.945H656.857L627.457 158.58H613.558V204.945H587.443V84.114H623.329ZM621.476 105.107H613.558V137.752H621.982C630.63 137.752 636.808 136.347 640.514 133.537C644.277 130.672 646.159 126.485 646.159 120.975C646.159 115.245 644.137 111.167 640.093 108.743C636.106 106.319 629.9 105.107 621.476 105.107Z" fill="black"/>
<path d="M813.123 144.364C813.123 153.676 811.943 162.161 809.585 169.82C807.226 177.423 803.632 183.98 798.802 189.49C794.028 195 787.963 199.242 780.606 202.217C773.249 205.138 764.544 206.598 754.491 206.598C744.439 206.598 735.734 205.138 728.377 202.217C721.02 199.242 714.927 195 710.097 189.49C705.323 183.98 701.757 177.396 699.398 169.737C697.04 162.078 695.86 153.566 695.86 144.199C695.86 131.692 697.938 120.81 702.094 111.553C706.306 102.241 712.764 95.0235 721.469 89.8994C730.174 84.7752 741.238 82.2131 754.66 82.2131C768.026 82.2131 779.005 84.7752 787.598 89.8994C796.247 95.0235 802.649 102.241 806.805 111.553C811.017 120.865 813.123 131.802 813.123 144.364ZM723.238 144.364C723.238 152.794 724.305 160.067 726.439 166.183C728.63 172.244 732.027 176.927 736.633 180.233C741.238 183.484 747.191 185.109 754.491 185.109C761.905 185.109 767.914 183.484 772.519 180.233C777.124 176.927 780.466 172.244 782.543 166.183C784.678 160.067 785.745 152.794 785.745 144.364C785.745 131.692 783.33 121.719 778.5 114.446C773.67 107.173 765.723 103.536 754.66 103.536C747.303 103.536 741.294 105.189 736.633 108.495C732.027 111.746 728.63 116.429 726.439 122.545C724.305 128.606 723.238 135.879 723.238 144.364Z" fill="black"/>
<path d="M890.961 103.702C885.962 103.702 881.526 104.666 877.651 106.594C873.832 108.468 870.603 111.195 867.963 114.776C865.38 118.358 863.414 122.683 862.066 127.752C860.718 132.821 860.044 138.524 860.044 144.86C860.044 153.4 861.111 160.701 863.246 166.762C865.436 172.767 868.805 177.368 873.354 180.564C877.903 183.704 883.772 185.275 890.961 185.275C895.959 185.275 900.957 184.724 905.955 183.622C911.01 182.52 916.485 180.949 922.382 178.911V200.399C916.935 202.603 911.571 204.173 906.292 205.11C901.013 206.102 895.088 206.598 888.518 206.598C875.825 206.598 865.38 204.036 857.18 198.912C849.037 193.732 843 186.514 839.069 177.258C835.137 167.946 833.172 157.092 833.172 144.695C833.172 135.548 834.435 127.173 836.963 119.57C839.49 111.966 843.196 105.382 848.082 99.8171C852.968 94.2521 859.005 89.9545 866.194 86.924C873.382 83.8936 881.638 82.3784 890.961 82.3784C897.082 82.3784 903.203 83.1498 909.325 84.6926C915.503 86.1802 921.399 88.2464 927.015 90.8911L918.591 111.718C913.986 109.569 909.353 107.696 904.692 106.098C900.03 104.5 895.453 103.702 890.961 103.702Z" fill="black"/>
<path d="M943.021 193.126C943.021 187.947 944.453 184.31 947.317 182.217C950.238 180.123 953.748 179.076 957.847 179.076C961.835 179.076 965.26 180.123 968.125 182.217C971.045 184.31 972.505 187.947 972.505 193.126C972.505 198.085 971.045 201.666 968.125 203.87C965.26 206.074 961.835 207.176 957.847 207.176C953.748 207.176 950.238 206.074 947.317 203.87C944.453 201.666 943.021 198.085 943.021 193.126Z" fill="black"/>
<path d="M1033.75 84.114C1044.92 84.114 1054.13 85.4364 1061.38 88.0811C1068.68 90.7258 1074.1 94.7205 1077.64 100.065C1081.17 105.41 1082.94 112.159 1082.94 120.314C1082.94 125.824 1081.88 130.645 1079.74 134.777C1077.61 138.909 1074.8 142.408 1071.32 145.273C1067.84 148.138 1064.07 150.48 1060.03 152.298L1096.25 204.945H1067.28L1037.88 158.58H1023.98V204.945H997.861V84.114H1033.75ZM1031.89 105.107H1023.98V137.752H1032.4C1041.05 137.752 1047.23 136.347 1050.93 133.537C1054.7 130.672 1056.58 126.485 1056.58 120.975C1056.58 115.245 1054.56 111.167 1050.51 108.743C1046.52 106.319 1040.32 105.107 1031.89 105.107Z" fill="black"/>
<path d="M1212 84.114V162.299C1212 170.619 1210.12 178.139 1206.36 184.861C1202.65 191.528 1197.01 196.818 1189.42 200.73C1181.9 204.642 1172.41 206.598 1160.95 206.598C1144.66 206.598 1132.25 202.521 1123.72 194.366C1115.18 186.211 1110.91 175.412 1110.91 161.968V84.114H1136.94V158.084C1136.94 168.056 1139.02 175.054 1143.18 179.076C1147.33 183.098 1153.48 185.109 1161.62 185.109C1167.35 185.109 1171.99 184.145 1175.52 182.217C1179.12 180.288 1181.76 177.313 1183.44 173.291C1185.13 169.269 1185.97 164.144 1185.97 157.918V84.114H1212Z" fill="black"/>
<defs>
<linearGradient id="paint0_linear_203_30" x1="-59.9953" y1="92.6643" x2="803.516" y2="18.3157" gradientUnits="userSpaceOnUse">
<stop offset="0.0244688" stop-color="#7BD7BD"/>
<stop offset="0.453042" stop-color="#DEF77E"/>
</linearGradient>
</defs>
</svg>
